<svg xmlns="http://www.w3.org/2000/svg" viewBox="0 0 71.66 61.27"><title>braces</title><path d="M30.71,25.34H32a0.6,0.6,0,0,0,.6-0.6V20.6A0.6,0.6,0,0,0,32,20H30.48c-7.37,0-11.59,3.81-11.59,10.46a45.47,45.47,0,0,0,.61,6.33A44.67,44.67,0,0,1,20.1,43c0,2.46-.65,5-5.5,5a0.6,0.6,0,0,0-.6.6v3.84a0.6,0.6,0,0,0,.6.6c4.93,0,5.5,2.88,5.5,5a40.62,40.62,0,0,1-.36,4.63c-0.05.46-.11,0.93-0.15,1.36a34.15,34.15,0,0,0-.69,6.28c0,7,4.09,10.91,11.51,10.91H32a0.6,0.6,0,0,0,.6-0.6V76.53a0.6,0.6,0,0,0-.6-0.6H30.72C27,75.86,25.29,74,25.29,70a32.68,32.68,0,0,1,.38-4.26l0.14-1.08a36.58,36.58,0,0,0,.61-5.87c0.06-4.08-1.5-7-4.43-8.3,3-1.36,4.49-4.11,4.42-8.2a34.07,34.07,0,0,0-.58-5.61l-0.17-1.3a31.67,31.67,0,0,1-.38-4.15C25.29,27.16,26.91,25.41,30.71,25.34Z" transform="translate(-14 -20)"/><path d="M85.06,48c-4.84,0-5.5-2.51-5.5-5a44.88,44.88,0,0,1,.6-6.25,45.61,45.61,0,0,0,.61-6.32C80.76,23.81,76.54,20,69.17,20h-1.5a0.6,0.6,0,0,0-.6.6v4.14a0.6,0.6,0,0,0,.6.6h1.27c3.81,0.07,5.43,1.82,5.43,5.87A31.66,31.66,0,0,1,74,35.37l-0.17,1.28a34.23,34.23,0,0,0-.58,5.62c-0.07,4.1,1.42,6.85,4.43,8.21-2.93,1.33-4.49,4.22-4.43,8.29a36.37,36.37,0,0,0,.61,5.87L74,65.72A32.68,32.68,0,0,1,74.37,70c0,4-1.68,5.88-5.42,5.95H67.67a0.6,0.6,0,0,0-.6.6v4.14a0.6,0.6,0,0,0,.6.6h1.58c7.43,0,11.51-3.88,11.51-10.91a43.94,43.94,0,0,0-.61-6.26l0-.24a41.6,41.6,0,0,1-.56-5.78c0-2.17.57-5,5.5-5a0.6,0.6,0,0,0,.6-0.6V48.6A0.6,0.6,0,0,0,85.06,48Z" transform="translate(-14 -20)"/><path d="M38.36,54.1a3.23,3.23,0,0,1-3.19-3.47,3.28,3.28,0,0,1,3.3-3.47,3.21,3.21,0,0,1,3.24,3.47,3.25,3.25,0,0,1-3.3,3.47H38.36Z" transform="translate(-14 -20)"/><path d="M49.75,54.1a3.23,3.23,0,0,1-3.19-3.47,3.28,3.28,0,0,1,3.3-3.47,3.21,3.21,0,0,1,3.25,3.47,3.25,3.25,0,0,1-3.3,3.47H49.75Z" transform="translate(-14 -20)"/><path d="M61.13,54.1a3.23,3.23,0,0,1-3.19-3.47,3.28,3.28,0,0,1,3.3-3.47,3.21,3.21,0,0,1,3.25,3.47,3.25,3.25,0,0,1-3.3,3.47H61.13Z" transform="translate(-14 -20)"/></svg>