<svg xmlns="http://www.w3.org/2000/svg" viewBox="0 0 768 768"><title>chart-dimension</title><path d="M682.75,268.12H500V85.36a20.83,20.83,0,0,0-20.81-20.81H85.47A20.84,20.84,0,0,0,64.66,85.36V479.07a20.84,20.84,0,0,0,20.81,20.81H268.23V682.64A20.83,20.83,0,0,0,289,703.45H682.75a20.83,20.83,0,0,0,20.81-20.81V288.93A20.84,20.84,0,0,0,682.75,268.12ZM85.47,481.36a2.29,2.29,0,0,1-2.29-2.29V85.36a2.29,2.29,0,0,1,2.29-2.29H479.18a2.29,2.29,0,0,1,2.28,2.29V268.12H289a20.84,20.84,0,0,0-20.81,20.81V481.36Zm396-194.72V479.07a2.29,2.29,0,0,1-2.28,2.29H286.75V288.93a2.29,2.29,0,0,1,2.29-2.29ZM685,682.64a2.29,2.29,0,0,1-2.29,2.28H289a2.29,2.29,0,0,1-2.29-2.28V499.88H479.18A20.83,20.83,0,0,0,500,479.07V286.64H682.75a2.29,2.29,0,0,1,2.29,2.29Z"/></svg>