<svg xmlns="http://www.w3.org/2000/svg" viewBox="0 0 768 768"><title>chart-bar</title><path d="M523.87,288.06V638.34a26,26,0,0,0,1.61,8.76H469.71a26,26,0,0,0,1.61-8.76V130.44a26.3,26.3,0,0,0-26.27-26.27H322.45a26.3,26.3,0,0,0-26.27,26.27V638.34a26,26,0,0,0,1.61,8.76H242a26,26,0,0,0,1.61-8.76V445.69a26.3,26.3,0,0,0-26.27-26.27H94.77A26.3,26.3,0,0,0,68.5,445.69V638.34a26.3,26.3,0,0,0,26.27,26.27h578A26.3,26.3,0,0,0,699,638.34V288.06a26.3,26.3,0,0,0-26.27-26.27H550.14A26.3,26.3,0,0,0,523.87,288.06Zm-367.8,359H94.77A8.77,8.77,0,0,1,86,638.34V445.69a8.77,8.77,0,0,1,8.76-8.76h122.6a8.77,8.77,0,0,1,8.76,8.76V638.34a8.77,8.77,0,0,1-8.76,8.76Zm166.38,0a8.77,8.77,0,0,1-8.76-8.76V130.44a8.77,8.77,0,0,1,8.76-8.76h122.6a8.77,8.77,0,0,1,8.76,8.76V638.34a8.77,8.77,0,0,1-8.76,8.76Zm359-359V638.34a8.77,8.77,0,0,1-8.76,8.76H550.14a8.77,8.77,0,0,1-8.76-8.76V288.06a8.77,8.77,0,0,1,8.76-8.76h122.6A8.77,8.77,0,0,1,681.49,288.06Z"/></svg>