<svg xmlns="http://www.w3.org/2000/svg" viewBox="0 0 768 768"><title>chart-radar</title><path d="M671.8,310.36,391.58,106.77a13.74,13.74,0,0,0-16.15,0L95.2,310.36a13.74,13.74,0,0,0-5,15.36l107,329.41a13.74,13.74,0,0,0,13.07,9.49H556.69a13.74,13.74,0,0,0,13.07-9.5l107-329.41A13.74,13.74,0,0,0,671.8,310.36ZM660.28,320l-48,15.56A9.29,9.29,0,0,0,601,331.87L393.72,219.25a9.89,9.89,0,0,0-7.78-8.9V120.71ZM594.1,341.49,385.94,409V229.69a9.8,9.8,0,0,0,3.64-1.62L594.46,339.39a9.61,9.61,0,0,0-.39,1.95C594.06,341.39,594.1,341.44,594.1,341.49ZM521.84,611,275.17,574a9.92,9.92,0,0,0-2.27-5.2L383.5,416.47,523.23,608.94A10.11,10.11,0,0,0,521.84,611ZM379.12,228.85a9.76,9.76,0,0,0,2,.73V409L220.84,357a9.5,9.5,0,0,0,.21-1.05,9.82,9.82,0,0,0-.57-2.82Zm-160,132.73,160.44,52L269,566a10.08,10.08,0,0,0-3.1-.63l-49.55-201A9.88,9.88,0,0,0,219.13,361.59ZM261.4,584.66a10.08,10.08,0,0,0,3.92.79,9.88,9.88,0,0,0,6-2.17l251,37.64a9.75,9.75,0,0,0,12.45,3.92L553.07,650H213.94Zm269.22,20.85a10,10,0,0,0-3.38.68L387.44,413.6l208-67.44a9.91,9.91,0,0,0,3.1,3.36ZM381.07,120.71v89.75a10,10,0,0,0-7.42,9.57c0,.23.12.42.13.65L213.39,346.36a9.73,9.73,0,0,0-2.44-.49,10,10,0,0,0-8.63,5.16l-95.59-31ZM105.21,324.65l95.69,31c0,.11-.06.2-.06.3a10,10,0,0,0,5.62,8.94L257,570a9.3,9.3,0,0,0,.61,11.67L210,647.18ZM557,647.18l-18.47-25.44a9.23,9.23,0,0,0,.79-11.11l69-260.16a10.07,10.07,0,0,0,5.92-9.14,9.51,9.51,0,0,0-.24-1.2l47.75-15.48Z"/></svg>