<svg version="1.1" xmlns="http://www.w3.org/2000/svg" xmlns:xlink="http://www.w3.org/1999/xlink" width="768" height="768" viewBox="0 0 768 768">
<path d="M384 0q39.75 0 67.875 28.125t28.125 67.875v16.5q11.75 4 28.25 11.5l11.5-11.5q28.25-28.25 68-28.25 39.5 0 67.75 28.25t28.25 67.75q0 39.75-28.25 68l-11.5 11.5q7.5 16.5 11.5 28.25h16.5q39.75 0 67.875 28.125t28.125 67.875-28.125 67.875-67.875 28.125h-16.5q-4 11.75-11.5 28.25l11.5 11.5q28.25 28.25 28.25 68 0 39.5-28.25 67.75t-67.75 28.25q-39.75 0-68-28.25l-11.5-11.5q-16.5 7.5-28.25 11.5v16.5q0 39.75-28.125 67.875t-67.875 28.125-67.875-28.125-28.125-67.875v-16.5q-11.75-4-28.25-11.5l-11.5 11.5q-28.25 28.25-67.75 28.25-39.75 0-67.875-28.25t-28.125-67.75q0-40 28-68l11.5-11.5q-7.5-16.5-11.5-28.25h-16.5q-39.75 0-67.875-28.125t-28.125-67.875 28.125-67.875 67.875-28.125h16.5q4-11.75 11.5-28.25l-11.5-11.5q-28-28-28-68 0-39.5 28.125-67.75t67.875-28.25q39.5 0 67.75 28.25l11.5 11.5q16.5-7.5 28.25-11.5v-16.5q0-39.75 28.125-67.875t67.875-28.125zM384 64q-13.25 0-22.625 9.375t-9.375 22.625v66.25q-56 8-102.25 42.25l-46.75-46.75q-9.5-9.5-22.5-9.5-13.25 0-22.625 9.375t-9.375 22.625q0 13.5 9.25 22.75l46.75 46.75q-34.25 46.25-42.25 102.25h-66.25q-13.25 0-22.625 9.375t-9.375 22.625 9.375 22.625 22.625 9.375h66.25q8 56 42.25 102.25l-46.75 46.75q-9.25 9.25-9.25 22.75 0 13.25 9.375 22.625t22.625 9.375q13 0 22.5-9.5l46.75-46.75q46.25 34.25 102.25 42.25v66.25q0 13.25 9.375 22.625t22.625 9.375 22.625-9.375 9.375-22.625v-66.25q56-8 102.25-42.25l46.75 46.75q9.5 9.5 22.75 9.5t22.625-9.375 9.375-22.625-9.5-22.75l-46.75-46.75q34.25-46.25 42.25-102.25h66.25q13.25 0 22.625-9.375t9.375-22.625-9.375-22.625-22.625-9.375h-66.25q-8-56-42.25-102.25l46.75-46.75q9.5-9.5 9.5-22.75t-9.375-22.625-22.625-9.375-22.75 9.5l-46.75 46.75q-46.25-34.25-102.25-42.25v-66.25q0-13.25-9.375-22.625t-22.625-9.375zM384 256q53 0 90.5 37.5t37.5 90.5-37.5 90.5-90.5 37.5-90.5-37.5-37.5-90.5 37.5-90.5 90.5-37.5zM384 320q-26.5 0-45.25 18.75t-18.75 45.25 18.75 45.25 45.25 18.75 45.25-18.75 18.75-45.25-18.75-45.25-45.25-18.75z"></path>
</svg>
