<svg xmlns="http://www.w3.org/2000/svg" viewBox="0 0 768 768"><title>download</title><path d="M480,63.45H608q39.75,0,67.88,28.12T704,159.45v448q0,39.75-28.12,67.88T608,703.45H160q-39.75,0-67.87-28.12T64,607.45v-448q0-39.75,28.13-67.87T160,63.45H288v64H160a32,32,0,0,0-32,32v448a32,32,0,0,0,32,32H608a32,32,0,0,0,32-32v-448a32,32,0,0,0-32-32H480v-64Z"/><path d="M384,0a30.83,30.83,0,0,1,22.63,9.38A30.83,30.83,0,0,1,416,32V434.75l73.25-73.5A30.92,30.92,0,0,1,512,352q13.75,0,22.88,9.13T544,384a30.92,30.92,0,0,1-9.25,22.75l-128,128a32.6,32.6,0,0,1-45.5,0l-128-128A32,32,0,0,1,224,384a32.17,32.17,0,0,1,54.75-22.75L352,434.75V32a30.83,30.83,0,0,1,9.38-22.62A30.83,30.83,0,0,1,384,0Z"/></svg>