<?xml version="1.0" encoding="utf-8"?>
<!-- Generated by IcoMoon.io -->
<!DOCTYPE svg PUBLIC "-//W3C//DTD SVG 1.1//EN" "http://www.w3.org/Graphics/SVG/1.1/DTD/svg11.dtd">
<svg version="1.1" xmlns="http://www.w3.org/2000/svg" xmlns:xlink="http://www.w3.org/1999/xlink" width="768" height="768" viewBox="0 0 768 768">
<g id="icomoon-ignore">
</g>
<path d="M480 128h128q39.75 0 67.875 28.125t28.125 67.875v448q0 39.75-28.125 67.875t-67.875 28.125h-448q-39.75 0-67.875-28.125t-28.125-67.875v-448q0-39.75 28.125-67.875t67.875-28.125h128v64h-128q-13.25 0-22.625 9.375t-9.375 22.625v448q0 13.25 9.375 22.625t22.625 9.375h448q13.25 0 22.625-9.375t9.375-22.625v-448q0-13.25-9.375-22.625t-22.625-9.375h-128v-64zM384 0q13.25 0 22.625 9.375t9.375 22.625v402.75l73.25-73.5q9.25-9.25 22.75-9.25 13.75 0 22.875 9.125t9.125 22.875q0 13.5-9.25 22.75l-128 128q-9.25 9.25-22.75 9.25t-22.75-9.25l-128-128q-9.25-9.75-9.25-22.75 0-13.25 9.375-22.625t22.625-9.375q13.5 0 22.75 9.25l73.25 73.5v-402.75q0-13.25 9.375-22.625t22.625-9.375z"></path>
</svg>
