<svg xmlns="http://www.w3.org/2000/svg" viewBox="0 0 768 768"><title>edit</title><path d="M638.86,605.63A31.84,31.84,0,0,1,607,637.46H161.44a31.84,31.84,0,0,1-31.83-31.83V160a31.84,31.84,0,0,1,31.83-31.83H288.75V64.55H161.44q-39.54,0-67.51,28T66,160V605.63q0,39.54,28,67.51t67.51,28H607q39.54,0,67.51-28t28-67.51v-93.5H638.86v93.5Z"/><path d="M232.87,570.63a31.44,31.44,0,0,1-31.34-33.87l10.08-130.21a31.46,31.46,0,0,1,9.12-19.79L529.63,77.87a31.42,31.42,0,0,1,44.45,0L694.2,198a31.42,31.42,0,0,1,0,44.45L385.3,551.34a31.39,31.39,0,0,1-19.8,9.11L235.29,570.53C234.48,570.6,233.67,570.63,232.87,570.63ZM273.39,423L267,505l82-6.35L627.52,220.22l-75.67-75.68Z"/></svg>