<svg xmlns="http://www.w3.org/2000/svg" viewBox="0 0 768 768"><title>help</title><path d="M626.95,737.67c0-78.2-76.91-118-151.82-150-74.66-31.83-98.5-58.64-98.5-116.09,0-34.43,22.78-23.22,32.77-86.38,4.22-26.18,24.34-.42,28.2-60.2,0-23.82-11-29.73-11-29.73s5.59-35.27,7.77-62.43c2.25-28.45-14-89.13-80.92-107.76-11.68-11.87-19.59-30.71,16.42-49.58-78.77-3.62-97.1,37.19-139.05,67.2-35.69,26.32-45.33,68-43.61,90.18,2.28,27.16,7.84,62.43,7.84,62.43s-11,5.92-11,29.74c3.87,59.82,24.05,34,28.24,60.2,10,63.16,32.81,51.95,32.81,86.38,0,57.45-7.46,77-82.15,108.78C88,612.36,64.66,663.54,65,737.67c.11,22.18-.39,30.33-.39,30.33H627.33s-.39-8.15-.39-30.33ZM716.23,537c-39.91-15.91-56.44-34.89-56.44-71.94,0-22.32,14.7-15,21.17-55.81,2.71-16.85,15.72-.28,18.22-38.82,0-15.36-7.11-19.19-7.11-19.19s3.63-22.84,5-40.35c1.76-21.83-12.8-78.24-79.76-78.24s-81.52,56.41-79.8,78.24c1.48,17.48,5.06,40.35,5.06,40.35s-7.1,3.8-7.1,19.19c2.5,38.54,15.51,22,18.21,38.82C560.2,450,574.9,442.76,574.9,465c0,37-15.4,54.39-63.62,74.93a71.32,71.32,0,0,0-6.44,3.55C562.52,568.31,653.46,611.11,675,698.36h93V617.65C768,582.83,758.4,553.8,716.23,537Z"/></svg>