<svg xmlns="http://www.w3.org/2000/svg" viewBox="0 0 768 768"><title>open</title><path d="M309.66,458.34a32.06,32.06,0,0,1,0-45.33L594.94,127.72,491,127.9a31,31,0,0,1-22.67-9.56q-9.74-9.74-9.74-22.67T468.33,73A31,31,0,0,1,491,63.44H672.33A31,31,0,0,1,695,73a31,31,0,0,1,9.56,22.67V277A32.07,32.07,0,0,1,695,299.67,32.23,32.23,0,0,1,640.1,277l0.18-103.95L355,458.34A32.06,32.06,0,0,1,309.66,458.34Z"/><path d="M640.45,608.39a32.06,32.06,0,0,1-32.06,32.06H159.61a32.06,32.06,0,0,1-32.06-32.06V159.61a32.06,32.06,0,0,1,32.06-32.06H287.83V63.44H159.61q-39.82,0-68,28.17t-28.17,68V608.39q0,39.82,28.17,68t68,28.17H608.39q39.82,0,68-28.17t28.17-68V475H640.45V608.39Z"/></svg>