<svg xmlns="http://www.w3.org/2000/svg" viewBox="0 0 768 768"><title>remove</title><path d="M610.32,157.79a312.61,312.61,0,0,1,70,105.79q23.92,59.72,23.92,120.23T680.31,504A317.81,317.81,0,0,1,504.53,679.82q-59.72,23.92-120.23,23.92T264.07,679.82A317.81,317.81,0,0,1,88.29,504Q64.37,444.32,64.37,383.81T88.29,263.57A317.81,317.81,0,0,1,264.07,87.8Q323.78,63.88,384.3,63.88T504.53,87.8a312.61,312.61,0,0,1,105.79,70Zm-41.09,41.09a255.26,255.26,0,0,0-86.52-57.15q-49-19.58-98.4-19.58t-98.4,19.58A258.81,258.81,0,0,0,142.23,285.4q-19.58,49-19.58,98.4t19.58,98.4A258.81,258.81,0,0,0,285.9,625.88q49,19.58,98.4,19.58t98.4-19.58A258.81,258.81,0,0,0,626.37,482.21q19.58-49,19.58-98.4t-19.58-98.4A255.26,255.26,0,0,0,569.23,198.88ZM487,281.07a29.07,29.07,0,0,1,0,41.09L425.4,383.81,487,445.45a29.06,29.06,0,0,1-41.09,41.09L384.3,424.9l-61.64,61.64a29.06,29.06,0,0,1-41.09-41.09l61.64-61.64-61.64-61.64a29.06,29.06,0,0,1,41.09-41.09l61.64,61.64,61.64-61.64a29.07,29.07,0,0,1,41.09,0Z"/></svg>