<svg xmlns="http://www.w3.org/2000/svg" viewBox="0 0 768 768"><title>tip</title><path d="M384.3,64.17A312.61,312.61,0,0,1,508.59,89.48q59.14,25.31,101.93,68.11t68.11,101.93a317.81,317.81,0,0,1,0,248.58Q653.32,567.24,610.52,610T508.59,678.14a317.81,317.81,0,0,1-248.58,0Q200.87,652.82,158.08,610T90,508.1a317.81,317.81,0,0,1,0-248.58q25.31-59.14,68.11-101.93T260,89.48A312.61,312.61,0,0,1,384.3,64.17Zm0,58.12a255.26,255.26,0,0,0-101.59,20.77q-48.47,20.77-83.43,55.73t-55.73,83.43a258.81,258.81,0,0,0,0,203.18q20.77,48.47,55.73,83.43t83.43,55.73a258.81,258.81,0,0,0,203.18,0q48.47-20.77,83.43-55.73t55.73-83.43a258.81,258.81,0,0,0,0-203.18q-20.77-48.47-55.73-83.43t-83.43-55.73A255.26,255.26,0,0,0,384.3,122.28Z"/><path d="M357.39,552.31a38.28,38.28,0,1,1,26.91,11.06A36.61,36.61,0,0,1,357.39,552.31Z"/><path d="M280.94,293.93a106.62,106.62,0,0,1,22.26-35.44,100.35,100.35,0,0,1,34.53-23.4q20.21-8.4,45.21-8.41,32.25,0,53.84,8.86t34.76,22q13.17,13.18,18.86,28.4t5.68,28.4q0,21.81-5.68,35.89a88.57,88.57,0,0,1-14.08,24.08,94,94,0,0,1-18.63,17q-10.22,7-19.31,14.08a90.32,90.32,0,0,0-16.13,16.13q-7,9.09-8.86,22.72v17.26H352V441.13q1.36-19.53,7.5-32.71a94,94,0,0,1,14.31-22.49,114.36,114.36,0,0,1,17.26-16.13q9.08-6.81,16.81-13.63a61,61,0,0,0,12.49-15q4.77-8.18,4.32-20.44,0-20.89-10.22-30.89t-28.4-10q-12.27,0-21.13,4.77a42.17,42.17,0,0,0-14.54,12.72A55.15,55.15,0,0,0,342,316a92.52,92.52,0,0,0-2.73,22.94H272.53A129.68,129.68,0,0,1,280.94,293.93Z"/></svg>