<svg class="hidden"><symbol viewBox="0 0 768 768" id="icon-arrow_down"><title>arrow_down</title>  <path d="M237 250.5l147 147 147-147 45 45-192 192-192-192z"/> </symbol><symbol viewBox="0 0 1024 1024" id="icon-arrow_drop_down"><title>arrow_drop_down</title>  <path d="M298 426h428l-214 214z"/> </symbol><symbol viewBox="0 0 1024 1024" id="icon-box"><title>box</title>  <path d="M42.667 213.333l469.333-213.333 469.333 213.333v597.333l-469.333 213.333-469.333-213.333v-597.333zM469.333 454l-341.333-155v456.667l341.333 155.333v-457zM896 755.667v-456.667l-341.333 155v457zM826.667 236.667l-314.667-143-314.667 143 314.667 143z"/> </symbol><symbol viewBox="0 0 71.66 61.27" id="icon-braces"><title>braces</title><path d="M30.71,25.34H32a0.6,0.6,0,0,0,.6-0.6V20.6A0.6,0.6,0,0,0,32,20H30.48c-7.37,0-11.59,3.81-11.59,10.46a45.47,45.47,0,0,0,.61,6.33A44.67,44.67,0,0,1,20.1,43c0,2.46-.65,5-5.5,5a0.6,0.6,0,0,0-.6.6v3.84a0.6,0.6,0,0,0,.6.6c4.93,0,5.5,2.88,5.5,5a40.62,40.62,0,0,1-.36,4.63c-0.05.46-.11,0.93-0.15,1.36a34.15,34.15,0,0,0-.69,6.28c0,7,4.09,10.91,11.51,10.91H32a0.6,0.6,0,0,0,.6-0.6V76.53a0.6,0.6,0,0,0-.6-0.6H30.72C27,75.86,25.29,74,25.29,70a32.68,32.68,0,0,1,.38-4.26l0.14-1.08a36.58,36.58,0,0,0,.61-5.87c0.06-4.08-1.5-7-4.43-8.3,3-1.36,4.49-4.11,4.42-8.2a34.07,34.07,0,0,0-.58-5.61l-0.17-1.3a31.67,31.67,0,0,1-.38-4.15C25.29,27.16,26.91,25.41,30.71,25.34Z" transform="translate(-14 -20)"/><path d="M85.06,48c-4.84,0-5.5-2.51-5.5-5a44.88,44.88,0,0,1,.6-6.25,45.61,45.61,0,0,0,.61-6.32C80.76,23.81,76.54,20,69.17,20h-1.5a0.6,0.6,0,0,0-.6.6v4.14a0.6,0.6,0,0,0,.6.6h1.27c3.81,0.07,5.43,1.82,5.43,5.87A31.66,31.66,0,0,1,74,35.37l-0.17,1.28a34.23,34.23,0,0,0-.58,5.62c-0.07,4.1,1.42,6.85,4.43,8.21-2.93,1.33-4.49,4.22-4.43,8.29a36.37,36.37,0,0,0,.61,5.87L74,65.72A32.68,32.68,0,0,1,74.37,70c0,4-1.68,5.88-5.42,5.95H67.67a0.6,0.6,0,0,0-.6.6v4.14a0.6,0.6,0,0,0,.6.6h1.58c7.43,0,11.51-3.88,11.51-10.91a43.94,43.94,0,0,0-.61-6.26l0-.24a41.6,41.6,0,0,1-.56-5.78c0-2.17.57-5,5.5-5a0.6,0.6,0,0,0,.6-0.6V48.6A0.6,0.6,0,0,0,85.06,48Z" transform="translate(-14 -20)"/><path d="M38.36,54.1a3.23,3.23,0,0,1-3.19-3.47,3.28,3.28,0,0,1,3.3-3.47,3.21,3.21,0,0,1,3.24,3.47,3.25,3.25,0,0,1-3.3,3.47H38.36Z" transform="translate(-14 -20)"/><path d="M49.75,54.1a3.23,3.23,0,0,1-3.19-3.47,3.28,3.28,0,0,1,3.3-3.47,3.21,3.21,0,0,1,3.25,3.47,3.25,3.25,0,0,1-3.3,3.47H49.75Z" transform="translate(-14 -20)"/><path d="M61.13,54.1a3.23,3.23,0,0,1-3.19-3.47,3.28,3.28,0,0,1,3.3-3.47,3.21,3.21,0,0,1,3.25,3.47,3.25,3.25,0,0,1-3.3,3.47H61.13Z" transform="translate(-14 -20)"/></symbol><symbol viewBox="0 0 1024 1024" id="icon-bulb"><title>bulb</title>  <path d="M512 0c-194.432 0-352 157.568-352 352 0 128.992 118.016 265.696 160.992 385.76 64.096 179.040 56.992 286.24 191.008 286.24 136 0 126.88-106.688 191.008-285.504 43.104-120.32 160.992-258.496 160.992-386.496 0-194.432-157.632-352-352-352zM594.944 869.632l-158.656 19.808c-5.664-16.384-11.744-35.552-19.136-60.576-0.096-0.32-0.224-0.672-0.288-0.992l198.016-24.736c-2.816 9.44-5.824 19.36-8.448 28.256-4.192 14.368-7.936 26.848-11.488 38.24zM407.552 797.056c-5.824-19.264-12.384-39.552-19.68-61.056h248.512c-3.936 11.488-7.872 23.008-11.264 33.888l-217.568 27.168zM512 960c-32.416 0-47.328-3.744-63.904-40l135.616-16.992c-19.648 52.928-33.952 56.992-71.712 56.992zM661.504 672h-298.656c-15.936-34.56-35.072-69.12-53.952-102.944-41.76-74.72-84.896-152-84.896-217.056 0-158.816 129.184-288 288-288s288 129.184 288 288c0 64.576-43.2 142.272-84.992 217.44-18.688 33.696-37.696 68.192-53.504 102.56zM512 160c8.8 0 16 7.168 16 16s-7.168 16-16 16c-88.224 0-160 71.776-160 160 0 8.832-7.168 16-16 16s-16-7.168-16-16c0-105.888 86.112-192 192-192z"/> </symbol><symbol viewBox="0 0 768 768" id="icon-chart-bar"><title>chart-bar</title><path d="M523.87,288.06V638.34a26,26,0,0,0,1.61,8.76H469.71a26,26,0,0,0,1.61-8.76V130.44a26.3,26.3,0,0,0-26.27-26.27H322.45a26.3,26.3,0,0,0-26.27,26.27V638.34a26,26,0,0,0,1.61,8.76H242a26,26,0,0,0,1.61-8.76V445.69a26.3,26.3,0,0,0-26.27-26.27H94.77A26.3,26.3,0,0,0,68.5,445.69V638.34a26.3,26.3,0,0,0,26.27,26.27h578A26.3,26.3,0,0,0,699,638.34V288.06a26.3,26.3,0,0,0-26.27-26.27H550.14A26.3,26.3,0,0,0,523.87,288.06Zm-367.8,359H94.77A8.77,8.77,0,0,1,86,638.34V445.69a8.77,8.77,0,0,1,8.76-8.76h122.6a8.77,8.77,0,0,1,8.76,8.76V638.34a8.77,8.77,0,0,1-8.76,8.76Zm166.38,0a8.77,8.77,0,0,1-8.76-8.76V130.44a8.77,8.77,0,0,1,8.76-8.76h122.6a8.77,8.77,0,0,1,8.76,8.76V638.34a8.77,8.77,0,0,1-8.76,8.76Zm359-359V638.34a8.77,8.77,0,0,1-8.76,8.76H550.14a8.77,8.77,0,0,1-8.76-8.76V288.06a8.77,8.77,0,0,1,8.76-8.76h122.6A8.77,8.77,0,0,1,681.49,288.06Z"/></symbol><symbol viewBox="0 0 768 768" id="icon-chart-bubble-tree"><title>chart-bubble-tree</title><path d="M143.24,307.53a5,5,0,0,0,1.67.3,4.79,4.79,0,0,0,4.63-3.15q3.25-9,7.38-17.71a4.94,4.94,0,0,0-2.46-6.5,4.82,4.82,0,0,0-6.5,2.36c-2.76,6-5.31,12.2-7.68,18.4A4.93,4.93,0,0,0,143.24,307.53Z"/><path d="M162,256.56a4.93,4.93,0,0,0,1.57,6.79,5,5,0,0,0,6.79-1.67c1.67-2.66,3.35-5.31,5.12-8a48.86,48.86,0,0,0,61.31-6.1A48.93,48.93,0,0,0,243,186.2c2.66-1.67,5.22-3.35,7.87-5a5,5,0,0,0,1.67-6.79,4.87,4.87,0,0,0-6.79-1.57q-4.58,2.8-9.15,5.9a48.57,48.57,0,0,0-68.69,68.69Q164.84,252,162,256.56ZM224.62,191a31.48,31.48,0,1,1-22.14-9.15A31.3,31.3,0,0,1,224.62,191Z"/><path d="M141.27,446.09a18.73,18.73,0,0,1-.49-2.26,55.77,55.77,0,0,0,0-109.43,20.27,20.27,0,0,1,.49-2.36,5,5,0,0,0-3.64-5.9,5,5,0,0,0-6,3.64c-.3,1.18-.49,2.36-.79,3.54H130a55.75,55.75,0,0,0,0,111.5,3.34,3.34,0,0,0,1-.1c.2,1.28.49,2.46.79,3.64a4.9,4.9,0,0,0,9.55-2.26ZM91.48,389a38.37,38.37,0,0,1,36.31-38.38,15.93,15.93,0,0,1,2.17-.1,36.13,36.13,0,0,1,7.38.69,38.54,38.54,0,0,1,0,75.67,36.13,36.13,0,0,1-7.38.69,15.93,15.93,0,0,1-2.17-.1A38.46,38.46,0,0,1,91.48,389Z"/><path d="M152.39,498.15a3.78,3.78,0,0,0,2.07-.49,4.94,4.94,0,0,0,2.46-6.49c-2.66-5.81-5.22-11.71-7.38-17.62a4.87,4.87,0,1,0-9.15,3.35c2.26,6.2,4.82,12.4,7.58,18.4A5.07,5.07,0,0,0,152.39,498.15Z"/><path d="M293.9,617.81c-5.9-2.17-11.81-4.63-17.61-7.28a4.89,4.89,0,1,0-4.13,8.86c6,2.85,12.2,5.41,18.4,7.68a4.6,4.6,0,0,0,1.67.29,5.08,5.08,0,0,0,4.62-3.25A5,5,0,0,0,293.9,617.81Z"/><path d="M480.94,610.23c-5.8,2.7-11.77,5.19-17.73,7.4a4.92,4.92,0,1,0,3.42,9.23c6.21-2.31,12.42-4.9,18.46-7.7a4.92,4.92,0,0,0-4.15-8.93Z"/><path d="M435.62,626c-2.42.58-4.89,1-7.34,1.46a51,51,0,0,0-100,.14c-2.26-.39-4.62-.89-6.89-1.48a4.82,4.82,0,0,0-5.9,3.64,4.91,4.91,0,0,0,3.64,5.9c2.66.59,5.41,1.18,8.17,1.77a51,51,0,0,0,102,0v-.1s0,0,0-.06c2.88-.59,5.78-1,8.62-1.72a4.92,4.92,0,0,0-2.31-9.57Zm-57.29,45.2a33.8,33.8,0,1,1,33.75-33.85A33.85,33.85,0,0,1,378.33,671.25Z"/><path d="M595,520.88a5,5,0,0,0-1.67-6.79,4.85,4.85,0,0,0-6.69,1.67c-3,4.72-6.1,9.45-9.35,14.07a41.61,41.61,0,0,0-57.42,57.57c-4.41,3.15-8.91,6.26-13.57,9.15a4.92,4.92,0,1,0,5.17,8.37c5.06-3.13,10-6.51,14.75-9.94a41.47,41.47,0,0,0,58.06-.69,41.53,41.53,0,0,0,.59-58.16C588.43,531.21,591.88,526,595,520.88Zm-57.37,61.31a24.41,24.41,0,0,1,0-34.54,24.47,24.47,0,0,1,34.44,0,24.41,24.41,0,0,1,0,34.54C562.95,591.34,546.81,591.34,537.65,582.19Z"/><path d="M613.53,470.1a5,5,0,0,0-6.3,3c-2.17,5.9-4.63,11.81-7.18,17.52a5,5,0,0,0,2.36,6.59,5.14,5.14,0,0,0,2.07.39,4.85,4.85,0,0,0,4.43-2.85c2.76-6,5.31-12.1,7.58-18.3A4.89,4.89,0,0,0,613.53,470.1Z"/><path d="M599.55,286.48q4,8.56,7.38,17.71a4.79,4.79,0,0,0,4.63,3.15,5,5,0,0,0,1.67-.3,4.93,4.93,0,0,0,3-6.3c-2.36-6.3-5-12.5-7.77-18.5a4.9,4.9,0,0,0-6.5-2.36A5,5,0,0,0,599.55,286.48Z"/><path d="M462.27,160.12c6,2.16,11.91,4.62,17.62,7.28a5.13,5.13,0,0,0,2.07.39,4.69,4.69,0,0,0,4.43-2.85,4.82,4.82,0,0,0-2.36-6.49c-6-2.76-12.1-5.31-18.3-7.58a4.93,4.93,0,0,0-6.3,3A4.8,4.8,0,0,0,462.27,160.12Z"/><path d="M505.08,180.79a123.59,123.59,0,0,1,10.63,7,45.26,45.26,0,0,0-7.18,24.7,46.36,46.36,0,0,0,46.35,46.35,45.35,45.35,0,0,0,24.8-7.18c2.16,3.05,4.23,6.3,6.2,9.45a5,5,0,0,0,6.69,1.57,5,5,0,0,0,1.67-6.79c-2.26-3.54-4.53-7-6.89-10.43.1,0,.2-.1.3-.2a46.34,46.34,0,1,0-65.54-65.54c-.1.1-.2.2-.2.3-3.84-2.66-7.77-5.22-11.71-7.68a4.94,4.94,0,0,0-5.12,8.46ZM575.44,233A29,29,0,1,1,584,212.47,28.94,28.94,0,0,1,575.44,233Z"/><path d="M319.49,152.05a60,60,0,0,0,117.69-.2,4.86,4.86,0,0,0,1.08-9.15,18.94,18.94,0,0,0,.1-2.36,60,60,0,0,0-120.06,0,18.94,18.94,0,0,0,.1,2.36,4.68,4.68,0,0,0-3.05,5.61A4.8,4.8,0,0,0,319.49,152.05Zm58.85-54.52A42.69,42.69,0,0,1,421,139.06a5.61,5.61,0,0,1,.1,1.28,40.75,40.75,0,0,1-.89,8.56,42.79,42.79,0,0,1-83.84.1,42.4,42.4,0,0,1-.89-8.66,5.61,5.61,0,0,1,.1-1.28A42.69,42.69,0,0,1,378.33,97.53Z"/><path d="M274.12,168.09a5.29,5.29,0,0,0,2.07-.49c5.81-2.66,11.71-5.12,17.71-7.28a4.94,4.94,0,0,0-3.44-9.25c-6.2,2.26-12.4,4.82-18.4,7.58a5,5,0,0,0-2.36,6.59A4.85,4.85,0,0,0,274.12,168.09Z"/><path d="M378.32,237.21c-83.72,0-151.84,68.12-151.84,151.84s68.12,151.84,151.84,151.84S530.17,472.77,530.17,389,462,237.21,378.32,237.21Zm0,286.46c-74.23,0-134.62-60.39-134.62-134.62s60.39-134.62,134.62-134.62S512.94,314.82,512.94,389,452.56,523.67,378.32,523.67Z"/><path d="M627,323.28A65.74,65.74,0,1,0,692.74,389,65.85,65.85,0,0,0,627,323.28Zm.29,114.25H627a43.68,43.68,0,0,1-9.55-1,48.47,48.47,0,0,1,0-95.06,43.64,43.64,0,0,1,9.55-1h.2a48.52,48.52,0,0,1,.1,97Z"/><path d="M240.86,526.49a54.2,54.2,0,0,0-68.29-6.79l-2.07-3.25a4.94,4.94,0,1,0-8.46,5.12c.89,1.48,1.77,3,2.76,4.33-.2.2-.49.39-.69.59a54.31,54.31,0,0,0,76.76,76.86,4.89,4.89,0,0,0,.69-.79c1.48,1,2.85,1.87,4.33,2.76a4.88,4.88,0,0,0,2.56.79,5,5,0,0,0,2.56-9.15l-3.25-2.07a53.35,53.35,0,0,0,9.05-30A54.06,54.06,0,0,0,240.86,526.49Zm-7.48,59a42,42,0,0,1-4.72,5.61,9.79,9.79,0,0,1-1.08,1,37,37,0,0,1-52.35-52.35,9.8,9.8,0,0,1,1-1.08,31.78,31.78,0,0,1,5.71-4.62,37,37,0,0,1,46.74,4.62,36.54,36.54,0,0,1,10.92,26.18A37.22,37.22,0,0,1,233.38,585.53Z"/></symbol><symbol viewBox="0 0 768 768" id="icon-chart-dimension"><title>chart-dimension</title><path d="M682.75,268.12H500V85.36a20.83,20.83,0,0,0-20.81-20.81H85.47A20.84,20.84,0,0,0,64.66,85.36V479.07a20.84,20.84,0,0,0,20.81,20.81H268.23V682.64A20.83,20.83,0,0,0,289,703.45H682.75a20.83,20.83,0,0,0,20.81-20.81V288.93A20.84,20.84,0,0,0,682.75,268.12ZM85.47,481.36a2.29,2.29,0,0,1-2.29-2.29V85.36a2.29,2.29,0,0,1,2.29-2.29H479.18a2.29,2.29,0,0,1,2.28,2.29V268.12H289a20.84,20.84,0,0,0-20.81,20.81V481.36Zm396-194.72V479.07a2.29,2.29,0,0,1-2.28,2.29H286.75V288.93a2.29,2.29,0,0,1,2.29-2.29ZM685,682.64a2.29,2.29,0,0,1-2.29,2.28H289a2.29,2.29,0,0,1-2.29-2.28V499.88H479.18A20.83,20.83,0,0,0,500,479.07V286.64H682.75a2.29,2.29,0,0,1,2.29,2.29Z"/></symbol><symbol viewBox="0 0 768 768" id="icon-chart-line"><title>chart-line</title><path d="M711.11,93.32a54.29,54.29,0,0,0-36.14,95L515.1,443.23a53.84,53.84,0,0,0-61.84,12.84L288.42,351.7a54,54,0,0,0,4.83-22.2,54.5,54.5,0,1,0-90,41L78,569.87a54,54,0,0,0-20.87-4.2,55.07,55.07,0,1,0,36.15,14L218.66,380a53.69,53.69,0,0,0,59.63-13.24L443.21,471.22a54.52,54.52,0,1,0,87-17.89L690.27,198.15A54.49,54.49,0,1,0,711.11,93.32ZM93.41,620.18a36.33,36.33,0,1,1-36.33-36.33A36.37,36.37,0,0,1,93.41,620.18ZM238.75,365.83a36.33,36.33,0,1,1,36.33-36.33A36.37,36.37,0,0,1,238.75,365.83ZM493.1,529.34A36.33,36.33,0,1,1,529.43,493,36.37,36.37,0,0,1,493.1,529.34Zm218-345.18a36.33,36.33,0,1,1,36.33-36.33A36.37,36.37,0,0,1,711.11,184.16Z"/></symbol><symbol viewBox="0 0 768 768" id="icon-chart-pie"><title>pie</title><path d="M624.54,392.12a8.58,8.58,0,0,0-8.58-8.58H384.25v-232a8.58,8.58,0,0,0-8.58-8.58c-137.22,0-248.87,111.47-248.87,248.5C126.81,533.52,234,640.67,376,640.67,508.41,640.67,624.54,524.51,624.54,392.12ZM144,391.45c0-124.71,99.32-226.66,223.12-231.19V392.12a8.14,8.14,0,0,0,8.58,8.27H607.2c-4.86,120-110.79,223.12-231.17,223.12C243.74,623.51,144,523.76,144,391.45ZM427.16,348.9H667.43c4.74.31,8.6-3.84,8.6-8.58C676,203.1,564.38,91.45,427.16,91.45a8.58,8.58,0,0,0-8.58,8.58V340.63A8.14,8.14,0,0,0,427.16,348.9Zm8.58-240.13c121.22,4.45,219,102.46,223,223.28h-223Z"/></symbol><symbol viewBox="0 0 768 768" id="icon-chart-radar"><title>chart-radar</title><path d="M671.8,310.36,391.58,106.77a13.74,13.74,0,0,0-16.15,0L95.2,310.36a13.74,13.74,0,0,0-5,15.36l107,329.41a13.74,13.74,0,0,0,13.07,9.49H556.69a13.74,13.74,0,0,0,13.07-9.5l107-329.41A13.74,13.74,0,0,0,671.8,310.36ZM660.28,320l-48,15.56A9.29,9.29,0,0,0,601,331.87L393.72,219.25a9.89,9.89,0,0,0-7.78-8.9V120.71ZM594.1,341.49,385.94,409V229.69a9.8,9.8,0,0,0,3.64-1.62L594.46,339.39a9.61,9.61,0,0,0-.39,1.95C594.06,341.39,594.1,341.44,594.1,341.49ZM521.84,611,275.17,574a9.92,9.92,0,0,0-2.27-5.2L383.5,416.47,523.23,608.94A10.11,10.11,0,0,0,521.84,611ZM379.12,228.85a9.76,9.76,0,0,0,2,.73V409L220.84,357a9.5,9.5,0,0,0,.21-1.05,9.82,9.82,0,0,0-.57-2.82Zm-160,132.73,160.44,52L269,566a10.08,10.08,0,0,0-3.1-.63l-49.55-201A9.88,9.88,0,0,0,219.13,361.59ZM261.4,584.66a10.08,10.08,0,0,0,3.92.79,9.88,9.88,0,0,0,6-2.17l251,37.64a9.75,9.75,0,0,0,12.45,3.92L553.07,650H213.94Zm269.22,20.85a10,10,0,0,0-3.38.68L387.44,413.6l208-67.44a9.91,9.91,0,0,0,3.1,3.36ZM381.07,120.71v89.75a10,10,0,0,0-7.42,9.57c0,.23.12.42.13.65L213.39,346.36a9.73,9.73,0,0,0-2.44-.49,10,10,0,0,0-8.63,5.16l-95.59-31ZM105.21,324.65l95.69,31c0,.11-.06.2-.06.3a10,10,0,0,0,5.62,8.94L257,570a9.3,9.3,0,0,0,.61,11.67L210,647.18ZM557,647.18l-18.47-25.44a9.23,9.23,0,0,0,.79-11.11l69-260.16a10.07,10.07,0,0,0,5.92-9.14,9.51,9.51,0,0,0-.24-1.2l47.75-15.48Z"/></symbol><symbol viewBox="0 0 768 768" id="icon-chart-sankey"><title>chart-sankey</title><path d="M688.94,286.15,622.49,172H120.16a13.54,13.54,0,0,0-13.68,13.39V572.71a13.54,13.54,0,0,0,13.68,13.39H419.57v75l48.95,27.36,49-27.35v-41l45.95,25.61L626,610.84V411.7a27,27,0,0,0-3-12.2ZM609.21,601.3,563.5,626.8l-45.75-25.5V515.47c0-14.1-11.72-25.57-26.13-25.57H291.77a8.3,8.3,0,0,0-8.39,8.22s0,.09,0,.14,0,.09,0,.14a8.3,8.3,0,0,0,8.39,8.22H489.21a11.44,11.44,0,0,1,11.56,11.31V651.55l-32.24,18-32.16-18V569.66H123.27V188.39H612.73l56.9,97.76-56.9,97.76h-321a8.22,8.22,0,1,0,0,16.43H597.62a11.48,11.48,0,0,1,11.59,11.34Z"/></symbol><symbol viewBox="0 0 768 768" id="icon-chart-table"><title>chart-table</title><path d="M645.81,104.16H122.26a18.48,18.48,0,0,0-18.45,18.46V646.17a18.47,18.47,0,0,0,18.45,18.45H645.81a18.47,18.47,0,0,0,18.45-18.45V122.62A18.48,18.48,0,0,0,645.81,104.16Zm2,18.46V376.18H392.24V120.59H645.81A2,2,0,0,1,647.83,122.62Zm-525.57-2H375.82V376.18H120.24V122.62A2,2,0,0,1,122.26,120.59Zm-2,525.58V392.6H375.82V648.19H122.26A2,2,0,0,1,120.24,646.17Zm525.57,2H392.24V392.6H647.83V646.17A2,2,0,0,1,645.81,648.19Z"/></symbol><symbol viewBox="0 0 768 768" id="icon-chart-tree-map"><title>chart-tree-map</title><path d="M641.72,108H125.28a18.23,18.23,0,0,0-18.21,18.21V642.61a18.23,18.23,0,0,0,18.21,18.21H641.72a18.23,18.23,0,0,0,18.21-18.21V126.17A18.23,18.23,0,0,0,641.72,108Zm2,18.21v116H391.6v-118H641.72A2,2,0,0,1,643.73,126.17ZM509.56,644.62h-118V260h118V644.62Zm16.2-386.29h118v254h-118ZM125.28,124.16H375.4V376.29H123.27V126.17A2,2,0,0,1,125.28,124.16Zm-2,518.45V392.49H375.4V644.62H125.28A2,2,0,0,1,123.27,642.61Zm518.45,2h-116V528.54h118V642.61A2,2,0,0,1,641.72,644.62Z"/></symbol><symbol viewBox="0 0 1024 1024" id="icon-checkmark"><title>checkmark</title>  <path d="M192 384l-192 192 384 384 640-640-192-192-448 448z"/> </symbol><symbol viewBox="0 0 1024 1024" id="icon-chevron_with_circle_left"><title>chevron_with_circle_left</title>  <path d="M578.662 346.931c-10.035-10.086-26.368-10.086-36.352 0l-143.718 146.688c-10.035 10.189-10.035 26.624 0 36.71l143.718 146.637c9.984 10.189 26.317 10.138 36.352 0 10.035-10.086 10.035-26.522 0-36.71l-117.862-128.256 117.862-128.307c10.035-10.138 10.035-26.522 0-36.762zM512 20.48c-271.462 0-491.52 220.058-491.52 491.52 0 271.514 220.058 491.52 491.52 491.52s491.52-220.006 491.52-491.52c0-271.462-220.058-491.52-491.52-491.52zM512 939.725c-236.288 0-427.725-191.488-427.725-427.725s191.437-427.725 427.725-427.725c236.186 0 427.725 191.488 427.725 427.725s-191.539 427.725-427.725 427.725z"/> </symbol><symbol viewBox="0 0 1024 1024" id="icon-circle_plus"><title>circle_plus</title>  <path d="M512 42.667q95.667 0 182.5 37.167t149.667 100 100 149.667 37.167 182.5-37.167 182.5-100 149.667-149.667 100-182.5 37.167-182.5-37.167-149.667-100-100-149.667-37.167-182.5 37.167-182.5 100-149.667 149.667-100 182.5-37.167zM512 128q-78 0-149.167 30.5t-122.5 81.833-81.833 122.5-30.5 149.167 30.5 149.167 81.833 122.5 122.5 81.833 149.167 30.5 149.167-30.5 122.5-81.833 81.833-122.5 30.5-149.167-30.5-149.167-81.833-122.5-122.5-81.833-149.167-30.5zM512 298.667q17.667 0 30.167 12.5t12.5 30.167v128h128q17.667 0 30.167 12.5t12.5 30.167-12.5 30.167-30.167 12.5h-128v128q0 17.667-12.5 30.167t-30.167 12.5-30.167-12.5-12.5-30.167v-128h-128q-17.667 0-30.167-12.5t-12.5-30.167 12.5-30.167 30.167-12.5h128v-128q0-17.667 12.5-30.167t30.167-12.5z"/> </symbol><symbol viewBox="0 0 768 768" id="icon-cog"><title>cog</title> <path d="M384 0q39.75 0 67.875 28.125t28.125 67.875v16.5q11.75 4 28.25 11.5l11.5-11.5q28.25-28.25 68-28.25 39.5 0 67.75 28.25t28.25 67.75q0 39.75-28.25 68l-11.5 11.5q7.5 16.5 11.5 28.25h16.5q39.75 0 67.875 28.125t28.125 67.875-28.125 67.875-67.875 28.125h-16.5q-4 11.75-11.5 28.25l11.5 11.5q28.25 28.25 28.25 68 0 39.5-28.25 67.75t-67.75 28.25q-39.75 0-68-28.25l-11.5-11.5q-16.5 7.5-28.25 11.5v16.5q0 39.75-28.125 67.875t-67.875 28.125-67.875-28.125-28.125-67.875v-16.5q-11.75-4-28.25-11.5l-11.5 11.5q-28.25 28.25-67.75 28.25-39.75 0-67.875-28.25t-28.125-67.75q0-40 28-68l11.5-11.5q-7.5-16.5-11.5-28.25h-16.5q-39.75 0-67.875-28.125t-28.125-67.875 28.125-67.875 67.875-28.125h16.5q4-11.75 11.5-28.25l-11.5-11.5q-28-28-28-68 0-39.5 28.125-67.75t67.875-28.25q39.5 0 67.75 28.25l11.5 11.5q16.5-7.5 28.25-11.5v-16.5q0-39.75 28.125-67.875t67.875-28.125zM384 64q-13.25 0-22.625 9.375t-9.375 22.625v66.25q-56 8-102.25 42.25l-46.75-46.75q-9.5-9.5-22.5-9.5-13.25 0-22.625 9.375t-9.375 22.625q0 13.5 9.25 22.75l46.75 46.75q-34.25 46.25-42.25 102.25h-66.25q-13.25 0-22.625 9.375t-9.375 22.625 9.375 22.625 22.625 9.375h66.25q8 56 42.25 102.25l-46.75 46.75q-9.25 9.25-9.25 22.75 0 13.25 9.375 22.625t22.625 9.375q13 0 22.5-9.5l46.75-46.75q46.25 34.25 102.25 42.25v66.25q0 13.25 9.375 22.625t22.625 9.375 22.625-9.375 9.375-22.625v-66.25q56-8 102.25-42.25l46.75 46.75q9.5 9.5 22.75 9.5t22.625-9.375 9.375-22.625-9.5-22.75l-46.75-46.75q34.25-46.25 42.25-102.25h66.25q13.25 0 22.625-9.375t9.375-22.625-9.375-22.625-22.625-9.375h-66.25q-8-56-42.25-102.25l46.75-46.75q9.5-9.5 9.5-22.75t-9.375-22.625-22.625-9.375-22.75 9.5l-46.75 46.75q-46.25-34.25-102.25-42.25v-66.25q0-13.25-9.375-22.625t-22.625-9.375zM384 256q53 0 90.5 37.5t37.5 90.5-37.5 90.5-90.5 37.5-90.5-37.5-37.5-90.5 37.5-90.5 90.5-37.5zM384 320q-26.5 0-45.25 18.75t-18.75 45.25 18.75 45.25 45.25 18.75 45.25-18.75 18.75-45.25-18.75-45.25-45.25-18.75z"/> </symbol><symbol viewBox="0 0 768 768" id="icon-download"><title>download</title><path d="M480,63.45H608q39.75,0,67.88,28.12T704,159.45v448q0,39.75-28.12,67.88T608,703.45H160q-39.75,0-67.87-28.12T64,607.45v-448q0-39.75,28.13-67.87T160,63.45H288v64H160a32,32,0,0,0-32,32v448a32,32,0,0,0,32,32H608a32,32,0,0,0,32-32v-448a32,32,0,0,0-32-32H480v-64Z"/><path d="M384,0a30.83,30.83,0,0,1,22.63,9.38A30.83,30.83,0,0,1,416,32V434.75l73.25-73.5A30.92,30.92,0,0,1,512,352q13.75,0,22.88,9.13T544,384a30.92,30.92,0,0,1-9.25,22.75l-128,128a32.6,32.6,0,0,1-45.5,0l-128-128A32,32,0,0,1,224,384a32.17,32.17,0,0,1,54.75-22.75L352,434.75V32a30.83,30.83,0,0,1,9.38-22.62A30.83,30.83,0,0,1,384,0Z"/></symbol><symbol viewBox="0 0 768 768" id="icon-edit"><title>edit</title><path d="M638.86,605.63A31.84,31.84,0,0,1,607,637.46H161.44a31.84,31.84,0,0,1-31.83-31.83V160a31.84,31.84,0,0,1,31.83-31.83H288.75V64.55H161.44q-39.54,0-67.51,28T66,160V605.63q0,39.54,28,67.51t67.51,28H607q39.54,0,67.51-28t28-67.51v-93.5H638.86v93.5Z"/><path d="M232.87,570.63a31.44,31.44,0,0,1-31.34-33.87l10.08-130.21a31.46,31.46,0,0,1,9.12-19.79L529.63,77.87a31.42,31.42,0,0,1,44.45,0L694.2,198a31.42,31.42,0,0,1,0,44.45L385.3,551.34a31.39,31.39,0,0,1-19.8,9.11L235.29,570.53C234.48,570.6,233.67,570.63,232.87,570.63ZM273.39,423L267,505l82-6.35L627.52,220.22l-75.67-75.68Z"/></symbol><symbol viewBox="0 0 640 512" id="icon-embed"><title>embed</title>  <path d="M416 368l48 48 160-160-160-160-48 48 112 112z"/> <path d="M224 144l-48-48-160 160 160 160 48-48-112-112z"/> <path d="M350.649 75.26l34.734 9.472-95.993 352.013-34.734-9.472 95.994-352.013z"/> </symbol><symbol viewBox="0 0 768 768" id="icon-file"><title>file</title>  <path d="M160 0h320l224 224v448q0 39.75-28.125 67.875t-67.875 28.125h-448q-39.75 0-67.875-28.125t-28.125-67.875v-576q0-39.75 28.125-67.875t67.875-28.125zM416 288v-224h-256q-13.5 0-22.75 9.25t-9.25 22.75v576q0 13.5 9.25 22.75t22.75 9.25h448q13.5 0 22.75-9.25t9.25-22.75v-384h-224zM613.5 224l-133.5-133.5v133.5h133.5z"/> </symbol><symbol viewBox="0 0 1024 1024" id="icon-filter"><title>filter</title>  <path d="M896 726v-598h-598v598h598zM896 42q34 0 60 26t26 60v598q0 34-26 59t-60 25h-598q-34 0-59-25t-25-59v-598q0-34 25-60t59-26h598zM128 214v682h682v86h-682q-34 0-60-26t-26-60v-682h86z"/> </symbol><symbol viewBox="0 0 768 768" id="icon-help"><title>help</title><path d="M626.95,737.67c0-78.2-76.91-118-151.82-150-74.66-31.83-98.5-58.64-98.5-116.09,0-34.43,22.78-23.22,32.77-86.38,4.22-26.18,24.34-.42,28.2-60.2,0-23.82-11-29.73-11-29.73s5.59-35.27,7.77-62.43c2.25-28.45-14-89.13-80.92-107.76-11.68-11.87-19.59-30.71,16.42-49.58-78.77-3.62-97.1,37.19-139.05,67.2-35.69,26.32-45.33,68-43.61,90.18,2.28,27.16,7.84,62.43,7.84,62.43s-11,5.92-11,29.74c3.87,59.82,24.05,34,28.24,60.2,10,63.16,32.81,51.95,32.81,86.38,0,57.45-7.46,77-82.15,108.78C88,612.36,64.66,663.54,65,737.67c.11,22.18-.39,30.33-.39,30.33H627.33s-.39-8.15-.39-30.33ZM716.23,537c-39.91-15.91-56.44-34.89-56.44-71.94,0-22.32,14.7-15,21.17-55.81,2.71-16.85,15.72-.28,18.22-38.82,0-15.36-7.11-19.19-7.11-19.19s3.63-22.84,5-40.35c1.76-21.83-12.8-78.24-79.76-78.24s-81.52,56.41-79.8,78.24c1.48,17.48,5.06,40.35,5.06,40.35s-7.1,3.8-7.1,19.19c2.5,38.54,15.51,22,18.21,38.82C560.2,450,574.9,442.76,574.9,465c0,37-15.4,54.39-63.62,74.93a71.32,71.32,0,0,0-6.44,3.55C562.52,568.31,653.46,611.11,675,698.36h93V617.65C768,582.83,758.4,553.8,716.23,537Z"/></symbol><symbol viewBox="0 0 1024 1024" id="icon-location"><title>location</title>  <path d="M512.064 567.872c105.888 0 192-86.144 192-192s-86.112-192-192-192c-105.888 0-192 86.112-192 192s86.112 192 192 192zM512.064 215.872c88.256 0 160 71.744 160 160s-71.744 160-160 160c-88.256 0-160-71.744-160-160s71.744-160 160-160zM512 0c-211.776 0-384 170.112-384 384.032 0 224 192.032 453.152 332.032 614.208 0.512 0.64 22.976 25.76 50.752 25.76 0.064 0 2.336 0 2.464 0 27.744 0 50.24-25.12 50.752-25.76 140.064-161.056 332.064-390.176 332.064-614.208 0-213.92-172.256-384.032-384.064-384.032zM515.744 956.256c-0.672 0.64-2.624 2.048-4.32 3.136-0.32-0.864-2.688-2.752-4.128-4.256-117.28-134.944-315.296-362.688-315.296-571.104 0-176.448 143.584-320.032 320-320.032 176.512 0 320.064 143.584 320.064 320.064 0 208.384-198.016 436.128-316.32 572.192z"/> </symbol><symbol viewBox="0 0 768 768" id="icon-more"><title>more</title><circle cx="368.13" cy="140.17" r="75.51"/><circle cx="368.13" cy="384.39" r="75.51"/><circle cx="368.13" cy="628.61" r="75.51"/></symbol><symbol viewBox="0 0 768 768" id="icon-open"><title>open</title><path d="M309.66,458.34a32.06,32.06,0,0,1,0-45.33L594.94,127.72,491,127.9a31,31,0,0,1-22.67-9.56q-9.74-9.74-9.74-22.67T468.33,73A31,31,0,0,1,491,63.44H672.33A31,31,0,0,1,695,73a31,31,0,0,1,9.56,22.67V277A32.07,32.07,0,0,1,695,299.67,32.23,32.23,0,0,1,640.1,277l0.18-103.95L355,458.34A32.06,32.06,0,0,1,309.66,458.34Z"/><path d="M640.45,608.39a32.06,32.06,0,0,1-32.06,32.06H159.61a32.06,32.06,0,0,1-32.06-32.06V159.61a32.06,32.06,0,0,1,32.06-32.06H287.83V63.44H159.61q-39.82,0-68,28.17t-28.17,68V608.39q0,39.82,28.17,68t68,28.17H608.39q39.82,0,68-28.17t28.17-68V475H640.45V608.39Z"/></symbol><symbol viewBox="0 0 768 768" id="icon-remove"><title>remove</title><path d="M610.32,157.79a312.61,312.61,0,0,1,70,105.79q23.92,59.72,23.92,120.23T680.31,504A317.81,317.81,0,0,1,504.53,679.82q-59.72,23.92-120.23,23.92T264.07,679.82A317.81,317.81,0,0,1,88.29,504Q64.37,444.32,64.37,383.81T88.29,263.57A317.81,317.81,0,0,1,264.07,87.8Q323.78,63.88,384.3,63.88T504.53,87.8a312.61,312.61,0,0,1,105.79,70Zm-41.09,41.09a255.26,255.26,0,0,0-86.52-57.15q-49-19.58-98.4-19.58t-98.4,19.58A258.81,258.81,0,0,0,142.23,285.4q-19.58,49-19.58,98.4t19.58,98.4A258.81,258.81,0,0,0,285.9,625.88q49,19.58,98.4,19.58t98.4-19.58A258.81,258.81,0,0,0,626.37,482.21q19.58-49,19.58-98.4t-19.58-98.4A255.26,255.26,0,0,0,569.23,198.88ZM487,281.07a29.07,29.07,0,0,1,0,41.09L425.4,383.81,487,445.45a29.06,29.06,0,0,1-41.09,41.09L384.3,424.9l-61.64,61.64a29.06,29.06,0,0,1-41.09-41.09l61.64-61.64-61.64-61.64a29.06,29.06,0,0,1,41.09-41.09l61.64,61.64,61.64-61.64a29.07,29.07,0,0,1,41.09,0Z"/></symbol><symbol viewBox="0 0 768 768" id="icon-search"><title>search</title><path d="M473.21,533.57a257.45,257.45,0,0,1-149.92,47.86c-142.84,0-258.63-115.79-258.63-258.63S180.45,64.17,323.29,64.17,581.92,180,581.92,322.8a257.46,257.46,0,0,1-47.86,149.92L704,642.65a42.4,42.4,0,0,1,0,60.14l-.71.71a42.56,42.56,0,0,1-60.14,0L473.21,533.57Zm-149.92-13c109.23,0,197.78-88.55,197.78-197.78S432.52,125,323.29,125,125.51,213.57,125.51,322.8s88.55,197.78,197.78,197.78Z"/></symbol><symbol viewBox="0 0 768 768" id="icon-share"><title>share</title>  <path d="M576 514.5q39 0 66 27.75t27 65.25q0 39-27.75 66.75t-65.25 27.75-65.25-27.75-27.75-66.75q0-15 1.5-21l-226.5-132q-28.5 25.5-66 25.5-39 0-67.5-28.5t-28.5-67.5 28.5-67.5 67.5-28.5q37.5 0 66 25.5l225-130.5q-3-15-3-22.5 0-39 28.5-67.5t67.5-28.5 67.5 28.5 28.5 67.5-28.5 67.5-67.5 28.5q-36 0-66-27l-225 132q3 15 3 22.5t-3 22.5l228 132q27-24 63-24z"/> </symbol><symbol viewBox="0 0 71.32 68.25" id="icon-sort"><title>sort</title><path d="M51.65,15.75H80.45L65.9,30.3Z" transform="translate(-14 -15.75)"/><path d="M48.26,30.3H18.87L33.42,15.75Z" transform="translate(-14 -15.75)"/><path d="M14,39.53H85.32v9H14v-9Z" transform="translate(-14 -15.75)"/><path d="M14,57.17H85.32v9H14v-9Z" transform="translate(-14 -15.75)"/><path d="M14,75H72.83v9H19a5,5,0,0,1-5-5V75Z" transform="translate(-14 -15.75)"/></symbol><symbol viewBox="0 0 768 768" id="icon-star"><title>star</title><path d="M383.5,570.65,175.14,696.93l55.25-236.77L47.28,300.73l241.51-20.52L383.5,57.65l94.71,222.57,241.51,20.52L536.61,460.16l55.25,236.77Z"/></symbol><symbol viewBox="0 0 768 768" id="icon-tip"><title>tip</title><path d="M384.3,64.17A312.61,312.61,0,0,1,508.59,89.48q59.14,25.31,101.93,68.11t68.11,101.93a317.81,317.81,0,0,1,0,248.58Q653.32,567.24,610.52,610T508.59,678.14a317.81,317.81,0,0,1-248.58,0Q200.87,652.82,158.08,610T90,508.1a317.81,317.81,0,0,1,0-248.58q25.31-59.14,68.11-101.93T260,89.48A312.61,312.61,0,0,1,384.3,64.17Zm0,58.12a255.26,255.26,0,0,0-101.59,20.77q-48.47,20.77-83.43,55.73t-55.73,83.43a258.81,258.81,0,0,0,0,203.18q20.77,48.47,55.73,83.43t83.43,55.73a258.81,258.81,0,0,0,203.18,0q48.47-20.77,83.43-55.73t55.73-83.43a258.81,258.81,0,0,0,0-203.18q-20.77-48.47-55.73-83.43t-83.43-55.73A255.26,255.26,0,0,0,384.3,122.28Z"/><path d="M357.39,552.31a38.28,38.28,0,1,1,26.91,11.06A36.61,36.61,0,0,1,357.39,552.31Z"/><path d="M280.94,293.93a106.62,106.62,0,0,1,22.26-35.44,100.35,100.35,0,0,1,34.53-23.4q20.21-8.4,45.21-8.41,32.25,0,53.84,8.86t34.76,22q13.17,13.18,18.86,28.4t5.68,28.4q0,21.81-5.68,35.89a88.57,88.57,0,0,1-14.08,24.08,94,94,0,0,1-18.63,17q-10.22,7-19.31,14.08a90.32,90.32,0,0,0-16.13,16.13q-7,9.09-8.86,22.72v17.26H352V441.13q1.36-19.53,7.5-32.71a94,94,0,0,1,14.31-22.49,114.36,114.36,0,0,1,17.26-16.13q9.08-6.81,16.81-13.63a61,61,0,0,0,12.49-15q4.77-8.18,4.32-20.44,0-20.89-10.22-30.89t-28.4-10q-12.27,0-21.13,4.77a42.17,42.17,0,0,0-14.54,12.72A55.15,55.15,0,0,0,342,316a92.52,92.52,0,0,0-2.73,22.94H272.53A129.68,129.68,0,0,1,280.94,293.93Z"/></symbol><symbol viewBox="0 0 384 512" id="icon-trashcan"><title>trashcan</title>  <path d="M352 64h-128c0 0 0-12.029 0-16 0-8.837-7.163-16-16-16s-16 7.163-16 16c0 8.837 0 16 0 16h-128c-17.673 0-32 14.327-32 32v32c0 17.673 14.327 32 32 32v288c0 17.673 14.327 32 32 32h224c17.673 0 32-14.327 32-32v-288c17.673 0 32-14.327 32-32v-32c0-17.673-14.327-32-32-32zM320 432c0 8.837-7.163 16-16 16h-192c-8.837 0-16-7.163-16-16v-272h32v240c0 8.837 7.163 16 16 16s16-7.163 16-16l0.194-240h31.806v240c0 8.837 7.163 16 16 16s16-7.163 16-16l0.194-240h32l-0.194 240c0 8.837 7.164 16 16 16s16-7.163 16-16v-240h32v272zM352 120c0 4.418-3.582 8-8 8h-272c-4.418 0-8-3.582-8-8v-16c0-4.418 3.582-8 8-8h272c4.418 0 8 3.582 8 8v16z"/> </symbol><symbol viewBox="0 0 1024 1024" id="icon-upload"><title>upload</title>  <path d="M640 85.333q78 0 149.167 30.5t122.5 81.833 81.833 122.5 30.5 149.167q0 72.667-26.5 139.667t-72 117.333-108.667 83.5-134.167 41.167v-86q71.667-10.333 130.167-51.833t92.167-105.667 33.667-138.167q0-60.667-23.667-116t-63.667-95.333-95.333-63.667-116-23.667q-55.333 0-106.5 19.833t-90 53.833-65 81.333-33.833 101h-88.667q-70.667 0-120.667 50t-50 120.667q0 38.667 15.167 71.667t39.833 54.167 54.833 33 60.833 11.833h170.667v85.333h-170.667q-69.667 0-128.5-34.333t-93.167-93.167-34.333-128.5 34.333-128.5 93.167-93.167 128.5-34.333h22q26.333-74.333 79.333-132.167t126.833-90.833 155.833-33zM554.667 426.667q17.667 0 30.333 12.667l128 128q12.333 12.333 12.333 30 0 18.333-12.167 30.5t-30.5 12.167q-18 0-30.333-12.333l-55-55.333v281q0 17.667-12.5 30.167t-30.167 12.5-30.167-12.5-12.5-30.167v-281l-55 55.333q-12.333 12.333-30.333 12.333-17.667 0-30.167-12.5t-12.5-30.167q0-17 12.333-30l128-128q12.667-12.667 30.333-12.667z"/> </symbol><symbol viewBox="0 0 22 24" id="icon-user"><title>user</title><path d="M20.49,17.53L16,14.87A7,7,0,0,0,18,10V7A7,7,0,0,0,4,7v3a7,7,0,0,0,2,4.86L1.44,17.57A3,3,0,0,0,0,20.1V24H22V20.1A2.91,2.91,0,0,0,20.49,17.53ZM6,7A5,5,0,0,1,16,7v3A5,5,0,0,1,6,10V7ZM20,22H2V20.1a1.09,1.09,0,0,1,.48-0.84l5.2-3.1a7,7,0,0,0,6.64,0l5.23,3.13a1,1,0,0,1,.45.81V22Z" transform="translate(0 0)"/></symbol></svg>