<svg xmlns="http://www.w3.org/2000/svg" viewBox="0 0 206.88 29.07"><defs><style>.a{fill:#1d1d1b;}</style></defs><title>OpenSpending</title><path class="a" d="M22,12.09a10.36,10.36,0,0,0-3.18-7.72A10.77,10.77,0,0,0,11,1.26,10.77,10.77,0,0,0,3.18,4.36,10.36,10.36,0,0,0,0,12.09a10.36,10.36,0,0,0,3.18,7.73A10.77,10.77,0,0,0,11,22.92a10.77,10.77,0,0,0,7.83-3.1A10.36,10.36,0,0,0,22,12.09Zm-6.57,4.78a5.77,5.77,0,0,1-4.43,2,5.77,5.77,0,0,1-4.42-2A6.81,6.81,0,0,1,4.8,12.1,6.86,6.86,0,0,1,6.6,7.32a5.75,5.75,0,0,1,4.42-2,5.75,5.75,0,0,1,4.43,2,6.86,6.86,0,0,1,1.8,4.78A6.81,6.81,0,0,1,15.45,16.87Zm12.93,3.7a5.68,5.68,0,0,0,4.75,2.37,6.8,6.8,0,0,0,5.16-2.4,8.49,8.49,0,0,0,2.21-6,8.33,8.33,0,0,0-2.21-5.93,6.67,6.67,0,0,0-9.91-.29V6.57h-4.5V26.4h4.5V20.58Zm1-9.19a3.38,3.38,0,0,1,2.69-1.31,3.49,3.49,0,0,1,2.73,1.32A4.83,4.83,0,0,1,36,14.67a4.48,4.48,0,0,1-1.17,3.19,3.64,3.64,0,0,1-2.73,1.25,3.41,3.41,0,0,1-2.66-1.25,4.68,4.68,0,0,1-1.09-3.21A4.91,4.91,0,0,1,29.41,11.38ZM49.93,22.95a9,9,0,0,0,6.4-2.58l-2.52-2.73a5.18,5.18,0,0,1-3.9,1.59,4.42,4.42,0,0,1-2.64-.84,3.21,3.21,0,0,1-1.38-2.16H57.66v-2.4a6.91,6.91,0,0,0-2.32-5.52,8.35,8.35,0,0,0-5.65-2A8.24,8.24,0,0,0,43.9,8.55a7.83,7.83,0,0,0-2.44,6.06,8,8,0,0,0,2.4,6.08,8.5,8.5,0,0,0,6.07,2.26h0ZM47.31,10.83A4.05,4.05,0,0,1,49.75,10,3.41,3.41,0,0,1,52,10.8,3.19,3.19,0,0,1,53.1,13H46A3.09,3.09,0,0,1,47.31,10.83ZM63.9,13.71a3.81,3.81,0,0,1,1-2.86,3.27,3.27,0,0,1,2.36-1Q70,9.87,70,13.59v9.12h4.5V12.9a6.64,6.64,0,0,0-1.73-4.8,5.68,5.68,0,0,0-4.28-1.8A6.3,6.3,0,0,0,63.9,8.37V6.57H59.4V22.71h4.5v-9h0Zm23,4.54a3.29,3.29,0,0,1-2,.56q-2.88,0-6.27-3l-2.79,3.42a12.87,12.87,0,0,0,9,3.69,8.43,8.43,0,0,0,5.56-1.75,5.66,5.66,0,0,0,2.11-4.58,5.45,5.45,0,0,0-1.65-4.29,10.72,10.72,0,0,0-4.64-2.2,15.08,15.08,0,0,1-3.81-1.27,1.66,1.66,0,0,1-.82-1.45,1.81,1.81,0,0,1,.68-1.47,2.82,2.82,0,0,1,1.85-.55,9.24,9.24,0,0,1,5.64,2.07L92.1,4a11.27,11.27,0,0,0-3.66-2,12.88,12.88,0,0,0-4.2-.72,8.63,8.63,0,0,0-5.36,1.62,5.43,5.43,0,0,0-2.15,4.61,5.35,5.35,0,0,0,1.69,4.38,13.42,13.42,0,0,0,5.36,2.27,10.22,10.22,0,0,1,3.09,1.13,1.75,1.75,0,0,1,.78,1.5,1.78,1.78,0,0,1-.73,1.5h0ZM99,20.58a5.68,5.68,0,0,0,4.76,2.37,6.8,6.8,0,0,0,5.16-2.4,8.49,8.49,0,0,0,2.21-6,8.33,8.33,0,0,0-2.21-5.93A6.67,6.67,0,0,0,99,8.37V6.57h-4.5V26.4H99V20.58h0Zm1-9.19a3.38,3.38,0,0,1,2.69-1.31,3.49,3.49,0,0,1,2.73,1.32,4.83,4.83,0,0,1,1.14,3.27,4.48,4.48,0,0,1-1.17,3.19,3.64,3.64,0,0,1-2.73,1.25,3.41,3.41,0,0,1-2.65-1.25A4.68,4.68,0,0,1,99,14.65,4.91,4.91,0,0,1,100.06,11.38Zm20.52,11.57A9,9,0,0,0,127,20.37l-2.52-2.73a5.18,5.18,0,0,1-3.9,1.59,4.42,4.42,0,0,1-2.64-.84,3.21,3.21,0,0,1-1.38-2.16h11.76v-2.4A6.92,6.92,0,0,0,126,8.31a8.35,8.35,0,0,0-5.65-2,8.24,8.24,0,0,0-5.78,2.25,7.83,7.83,0,0,0-2.44,6.06,8,8,0,0,0,2.4,6.08,8.49,8.49,0,0,0,6.07,2.26h0ZM118,10.83A4.06,4.06,0,0,1,120.4,10a3.41,3.41,0,0,1,2.27.78A3.19,3.19,0,0,1,123.75,13h-7.08A3.1,3.1,0,0,1,118,10.83h0Zm16.59,2.88a3.81,3.81,0,0,1,1-2.86,3.27,3.27,0,0,1,2.35-1q2.73,0,2.73,3.72v9.12h4.5V12.9a6.64,6.64,0,0,0-1.73-4.8,5.68,5.68,0,0,0-4.27-1.8,6.3,6.3,0,0,0-4.59,2.07V6.57H130V22.71h4.5v-9Zm19.64,9.24a5.84,5.84,0,0,0,4.76-2.37v2.13h4.5V0.45h-4.5V8.37a6.16,6.16,0,0,0-4.8-2.07A6.87,6.87,0,0,0,149,8.59a8.19,8.19,0,0,0-2.19,5.89,8.54,8.54,0,0,0,2.25,6,6.81,6.81,0,0,0,5.11,2.43h0ZM152.49,11.4a3.49,3.49,0,0,1,2.73-1.32,3.38,3.38,0,0,1,2.68,1.31,4.91,4.91,0,0,1,1.1,3.27,4.68,4.68,0,0,1-1.1,3.21,3.41,3.41,0,0,1-2.65,1.25,3.63,3.63,0,0,1-2.73-1.25,4.48,4.48,0,0,1-1.17-3.19,4.81,4.81,0,0,1,1.14-3.27h0Zm16-6.12a2.55,2.55,0,0,0,1.88-.76,2.55,2.55,0,0,0,.76-1.87,2.55,2.55,0,0,0-.76-1.88,2.68,2.68,0,0,0-3.75,0,2.55,2.55,0,0,0-.77,1.87,2.55,2.55,0,0,0,.77,1.87A2.55,2.55,0,0,0,168.45,5.28ZM166.2,6.57h4.5V22.71h-4.5V6.57ZM178,13.71a3.81,3.81,0,0,1,1-2.86,3.28,3.28,0,0,1,2.36-1q2.73,0,2.73,3.72v9.12h4.5V12.9a6.65,6.65,0,0,0-1.73-4.8,5.68,5.68,0,0,0-4.27-1.8A6.3,6.3,0,0,0,178,8.37V6.57h-4.5V22.71H178v-9h0Zm24.42-7.17V8.67a5.85,5.85,0,0,0-4.77-2.37,7,7,0,0,0-5.12,2.3,8.08,8.08,0,0,0-2.24,5.88,7.68,7.68,0,0,0,2.18,5.73,7.31,7.31,0,0,0,5.34,2.15A6.83,6.83,0,0,0,203.07,20a4.86,4.86,0,0,1-1.44,3.9,5.83,5.83,0,0,1-3.91,1.23,7.66,7.66,0,0,1-4.7-1.68l-1.74,3.39a10.43,10.43,0,0,0,3.28,1.66,12.29,12.29,0,0,0,3.67.58,9.16,9.16,0,0,0,5.88-2,6.63,6.63,0,0,0,2-2.64,9.33,9.33,0,0,0,.75-3.84V6.54h-4.5Zm-1,10.86a3.52,3.52,0,0,1-2.7,1.17,3.64,3.64,0,0,1-2.74-1.18,4.32,4.32,0,0,1-1.12-3.1,4,4,0,0,1,1.15-3,3.83,3.83,0,0,1,2.75-1.11,3.58,3.58,0,0,1,2.67,1.11,4.18,4.18,0,0,1,1.08,3,4.4,4.4,0,0,1-1.08,3.11h0Z" transform="translate(0 0)"/></svg>
