<svg xmlns="http://www.w3.org/2000/svg" viewBox="0 0 172.48 28.62"><defs><style>.a{fill:#1d1d1b;}</style></defs><title>ospackager</title><path class="a" d="M54.15,3.16Q56.35,5,56.35,8.92t-2.27,5.69q-2.27,1.8-6.92,1.8H44.38v5.85H39.7v-21h7.41Q51.94,1.29,54.15,3.16Zm-3.44,8.25a4,4,0,0,0,.84-2.76,2.92,2.92,0,0,0-1.1-2.58,6,6,0,0,0-3.4-.77H44.38v7.05h3.15Q49.87,12.36,50.71,11.41Z"/><path class="a" d="M72.25,22.26H68v-2a5.3,5.3,0,0,1-4.3,2.19A6.4,6.4,0,0,1,59.41,21a5,5,0,0,1-1.74-4,4.19,4.19,0,0,1,1.8-3.71,8.61,8.61,0,0,1,4.92-1.23h3.36V12q0-2.58-2.73-2.58a7.39,7.39,0,0,0-2.48.46,8,8,0,0,0-2.2,1.16l-2-2.91a12,12,0,0,1,7.26-2.31,7.51,7.51,0,0,1,4.8,1.47A5.57,5.57,0,0,1,72.25,12V22.26Zm-4.53-6.15V15.33H64.9q-2.7,0-2.7,1.68a1.54,1.54,0,0,0,.65,1.33,3.12,3.12,0,0,0,1.84.46,3.28,3.28,0,0,0,2.12-.74A2.39,2.39,0,0,0,67.72,16.11Z"/><path class="a" d="M83.35,18.51a5.16,5.16,0,0,0,4-2.25l2.67,3a9.28,9.28,0,0,1-6.75,3.24,8.75,8.75,0,0,1-6.13-2.3,7.75,7.75,0,0,1-2.5-6,7.81,7.81,0,0,1,2.53-6,8.6,8.6,0,0,1,6-2.33,9.38,9.38,0,0,1,3.52.72A8.92,8.92,0,0,1,89.89,8.7l-2.34,3.06a5.33,5.33,0,0,0-1.9-1.44,5.38,5.38,0,0,0-2.23-.51,4.38,4.38,0,0,0-3,1.16,4.11,4.11,0,0,0-1.27,3.21,4.06,4.06,0,0,0,1.27,3.19A4.33,4.33,0,0,0,83.35,18.51Z"/><path class="a" d="M96.82,22.26h-4.5V0h4.5V11.43l5-5.34h5.67l-6.15,6.54,6.39,9.63H102.4l-4.11-6.18-1.47,1.53v4.65Z"/><path class="a" d="M122.71,22.26h-4.23v-2a5.3,5.3,0,0,1-4.3,2.19A6.4,6.4,0,0,1,109.87,21a5,5,0,0,1-1.74-4,4.19,4.19,0,0,1,1.8-3.71,8.61,8.61,0,0,1,4.92-1.23h3.36V12q0-2.58-2.73-2.58a7.39,7.39,0,0,0-2.48.46,8,8,0,0,0-2.2,1.16l-2-2.91A12,12,0,0,1,116,5.85a7.51,7.51,0,0,1,4.8,1.47A5.57,5.57,0,0,1,122.71,12V22.26Zm-4.53-6.15V15.33h-2.82q-2.7,0-2.7,1.68a1.54,1.54,0,0,0,.65,1.33,3.12,3.12,0,0,0,1.84.46,3.28,3.28,0,0,0,2.12-.74A2.39,2.39,0,0,0,118.18,16.11Z"/><path class="a" d="M138,19.53a6.83,6.83,0,0,1-5.29,2.37,7.31,7.31,0,0,1-5.34-2.14A7.68,7.68,0,0,1,125.2,14a8.08,8.08,0,0,1,2.24-5.88,7,7,0,0,1,5.11-2.29,5.86,5.86,0,0,1,4.77,2.37V6.09h4.5V20.16a9.34,9.34,0,0,1-.75,3.84,6.64,6.64,0,0,1-2,2.64,9.16,9.16,0,0,1-5.88,2A12.28,12.28,0,0,1,129.5,28a10.46,10.46,0,0,1-3.29-1.67L128,23a7.66,7.66,0,0,0,4.7,1.68,5.83,5.83,0,0,0,3.92-1.23A4.86,4.86,0,0,0,138,19.53Zm-0.63-5.69a4.18,4.18,0,0,0-1.08-3,3.58,3.58,0,0,0-2.67-1.11,3.83,3.83,0,0,0-2.75,1.11,4,4,0,0,0-1.15,3,4.32,4.32,0,0,0,1.13,3.11,3.64,3.64,0,0,0,2.75,1.18,3.52,3.52,0,0,0,2.7-1.17A4.39,4.39,0,0,0,137.38,13.84Z"/><path class="a" d="M159.31,19.92a9,9,0,0,1-6.41,2.58,8.5,8.5,0,0,1-6.08-2.27,8,8,0,0,1-2.4-6.08,7.83,7.83,0,0,1,2.44-6.06,8.25,8.25,0,0,1,5.78-2.25,8.35,8.35,0,0,1,5.66,2,6.92,6.92,0,0,1,2.32,5.52v2.4H148.87a3.2,3.2,0,0,0,1.38,2.16,4.41,4.41,0,0,0,2.64.84,5.18,5.18,0,0,0,3.9-1.59ZM155,10.35a3.41,3.41,0,0,0-2.26-.78,4.05,4.05,0,0,0-2.45.81A3.1,3.1,0,0,0,149,12.57h7.08A3.2,3.2,0,0,0,155,10.35Z"/><path class="a" d="M171.61,10.08a3.41,3.41,0,0,0-3,1.43,6.48,6.48,0,0,0-1,3.77v7h-4.5V6.12h4.5V8.25a7.56,7.56,0,0,1,2.17-1.68,5.92,5.92,0,0,1,2.66-.72l0,4.23h-0.87Z"/><path class="a" d="M18.84,19.36A10.78,10.78,0,0,1,11,22.47a10.77,10.77,0,0,1-7.83-3.11A10.36,10.36,0,0,1,0,11.64,10.36,10.36,0,0,1,3.18,3.91,10.77,10.77,0,0,1,11,.81a10.78,10.78,0,0,1,7.83,3.1A10.36,10.36,0,0,1,22,11.64,10.36,10.36,0,0,1,18.84,19.36Zm-1.59-7.71a6.86,6.86,0,0,0-1.8-4.79,5.75,5.75,0,0,0-4.43-2,5.75,5.75,0,0,0-4.42,2,6.86,6.86,0,0,0-1.8,4.79,6.81,6.81,0,0,0,1.8,4.77,5.77,5.77,0,0,0,4.42,2,5.77,5.77,0,0,0,4.43-2A6.81,6.81,0,0,0,17.25,11.65Z"/><path class="a" d="M24.85,5.47a1.81,1.81,0,0,0-.67,1.47A1.66,1.66,0,0,0,25,8.4a15.08,15.08,0,0,0,3.81,1.27,10.73,10.73,0,0,1,4.64,2.21,5.45,5.45,0,0,1,1.65,4.29A5.66,5.66,0,0,1,33,20.74a8.43,8.43,0,0,1-5.57,1.76,12.88,12.88,0,0,1-9-3.69l2.79-3.42q3.39,3,6.27,3a3.29,3.29,0,0,0,2-.55,1.78,1.78,0,0,0,.73-1.5,1.75,1.75,0,0,0-.78-1.5,10.19,10.19,0,0,0-3.09-1.13A13.43,13.43,0,0,1,21,11.41,5.35,5.35,0,0,1,19.35,7a5.43,5.43,0,0,1,2.15-4.6A8.63,8.63,0,0,1,26.85.81a12.88,12.88,0,0,1,4.2.72,11.25,11.25,0,0,1,3.66,2L32.34,7A9.24,9.24,0,0,0,26.7,4.92,2.82,2.82,0,0,0,24.85,5.47Z"/></svg>