<svg xmlns="http://www.w3.org/2000/svg" viewBox="0 0 768 768"><title>pie</title><path d="M624.54,392.12a8.58,8.58,0,0,0-8.58-8.58H384.25v-232a8.58,8.58,0,0,0-8.58-8.58c-137.22,0-248.87,111.47-248.87,248.5C126.81,533.52,234,640.67,376,640.67,508.41,640.67,624.54,524.51,624.54,392.12ZM144,391.45c0-124.71,99.32-226.66,223.12-231.19V392.12a8.14,8.14,0,0,0,8.58,8.27H607.2c-4.86,120-110.79,223.12-231.17,223.12C243.74,623.51,144,523.76,144,391.45ZM427.16,348.9H667.43c4.74.31,8.6-3.84,8.6-8.58C676,203.1,564.38,91.45,427.16,91.45a8.58,8.58,0,0,0-8.58,8.58V340.63A8.14,8.14,0,0,0,427.16,348.9Zm8.58-240.13c121.22,4.45,219,102.46,223,223.28h-223Z"/></svg>