<svg xmlns="http://www.w3.org/2000/svg" viewBox="0 0 768 768"><title>chart-tree-map</title><path d="M641.72,108H125.28a18.23,18.23,0,0,0-18.21,18.21V642.61a18.23,18.23,0,0,0,18.21,18.21H641.72a18.23,18.23,0,0,0,18.21-18.21V126.17A18.23,18.23,0,0,0,641.72,108Zm2,18.21v116H391.6v-118H641.72A2,2,0,0,1,643.73,126.17ZM509.56,644.62h-118V260h118V644.62Zm16.2-386.29h118v254h-118ZM125.28,124.16H375.4V376.29H123.27V126.17A2,2,0,0,1,125.28,124.16Zm-2,518.45V392.49H375.4V644.62H125.28A2,2,0,0,1,123.27,642.61Zm518.45,2h-116V528.54h118V642.61A2,2,0,0,1,641.72,644.62Z"/></svg>