<svg xmlns="http://www.w3.org/2000/svg" viewBox="0 0 768 768"><title>chart-sankey</title><path d="M688.94,286.15,622.49,172H120.16a13.54,13.54,0,0,0-13.68,13.39V572.71a13.54,13.54,0,0,0,13.68,13.39H419.57v75l48.95,27.36,49-27.35v-41l45.95,25.61L626,610.84V411.7a27,27,0,0,0-3-12.2ZM609.21,601.3,563.5,626.8l-45.75-25.5V515.47c0-14.1-11.72-25.57-26.13-25.57H291.77a8.3,8.3,0,0,0-8.39,8.22s0,.09,0,.14,0,.09,0,.14a8.3,8.3,0,0,0,8.39,8.22H489.21a11.44,11.44,0,0,1,11.56,11.31V651.55l-32.24,18-32.16-18V569.66H123.27V188.39H612.73l56.9,97.76-56.9,97.76h-321a8.22,8.22,0,1,0,0,16.43H597.62a11.48,11.48,0,0,1,11.59,11.34Z"/></svg>