<svg xmlns="http://www.w3.org/2000/svg" viewBox="0 0 768 768"><title>chart-line</title><path d="M711.11,93.32a54.29,54.29,0,0,0-36.14,95L515.1,443.23a53.84,53.84,0,0,0-61.84,12.84L288.42,351.7a54,54,0,0,0,4.83-22.2,54.5,54.5,0,1,0-90,41L78,569.87a54,54,0,0,0-20.87-4.2,55.07,55.07,0,1,0,36.15,14L218.66,380a53.69,53.69,0,0,0,59.63-13.24L443.21,471.22a54.52,54.52,0,1,0,87-17.89L690.27,198.15A54.49,54.49,0,1,0,711.11,93.32ZM93.41,620.18a36.33,36.33,0,1,1-36.33-36.33A36.37,36.37,0,0,1,93.41,620.18ZM238.75,365.83a36.33,36.33,0,1,1,36.33-36.33A36.37,36.37,0,0,1,238.75,365.83ZM493.1,529.34A36.33,36.33,0,1,1,529.43,493,36.37,36.37,0,0,1,493.1,529.34Zm218-345.18a36.33,36.33,0,1,1,36.33-36.33A36.37,36.37,0,0,1,711.11,184.16Z"/></svg>