<svg xmlns="http://www.w3.org/2000/svg" viewBox="0 0 768 768"><title>chart-donut</title><path d="M384.33,72.89c-170.94,0-310,139.74-310,311.5s139.06,311.49,310,311.49,310-139.74,310-311.49S555.27,72.89,384.33,72.89ZM190.17,384.39c0-107.89,87.1-195.66,194.16-195.66S578.5,276.5,578.5,384.39,491.4,580.05,384.33,580.05,190.17,492.27,190.17,384.39ZM241,229.31l-58.6-58.6A291.56,291.56,0,0,1,376.05,89.65V172.6A208.9,208.9,0,0,0,241,229.31Zm-70.24-46.84,58.63,58.64a212,212,0,0,0,0,286.56l-58.63,58.64a295.25,295.25,0,0,1,0-403.84ZM384.33,679.33c-78.21,0-149.31-31-202-81.27l58.6-58.6c37.65,35.33,88,57.13,143.37,57.13,116.19,0,210.72-95.19,210.72-212.2,0-114.2-90.11-207.36-202.45-211.79V89.65c158,4.43,285.19,134.89,285.19,294.74C677.79,547,546.15,679.33,384.33,679.33Z"/></svg>