<svg xmlns="http://www.w3.org/2000/svg" viewBox="0 0 768 768"><title>chart-bubble-tree</title><path d="M143.24,307.53a5,5,0,0,0,1.67.3,4.79,4.79,0,0,0,4.63-3.15q3.25-9,7.38-17.71a4.94,4.94,0,0,0-2.46-6.5,4.82,4.82,0,0,0-6.5,2.36c-2.76,6-5.31,12.2-7.68,18.4A4.93,4.93,0,0,0,143.24,307.53Z"/><path d="M162,256.56a4.93,4.93,0,0,0,1.57,6.79,5,5,0,0,0,6.79-1.67c1.67-2.66,3.35-5.31,5.12-8a48.86,48.86,0,0,0,61.31-6.1A48.93,48.93,0,0,0,243,186.2c2.66-1.67,5.22-3.35,7.87-5a5,5,0,0,0,1.67-6.79,4.87,4.87,0,0,0-6.79-1.57q-4.58,2.8-9.15,5.9a48.57,48.57,0,0,0-68.69,68.69Q164.84,252,162,256.56ZM224.62,191a31.48,31.48,0,1,1-22.14-9.15A31.3,31.3,0,0,1,224.62,191Z"/><path d="M141.27,446.09a18.73,18.73,0,0,1-.49-2.26,55.77,55.77,0,0,0,0-109.43,20.27,20.27,0,0,1,.49-2.36,5,5,0,0,0-3.64-5.9,5,5,0,0,0-6,3.64c-.3,1.18-.49,2.36-.79,3.54H130a55.75,55.75,0,0,0,0,111.5,3.34,3.34,0,0,0,1-.1c.2,1.28.49,2.46.79,3.64a4.9,4.9,0,0,0,9.55-2.26ZM91.48,389a38.37,38.37,0,0,1,36.31-38.38,15.93,15.93,0,0,1,2.17-.1,36.13,36.13,0,0,1,7.38.69,38.54,38.54,0,0,1,0,75.67,36.13,36.13,0,0,1-7.38.69,15.93,15.93,0,0,1-2.17-.1A38.46,38.46,0,0,1,91.48,389Z"/><path d="M152.39,498.15a3.78,3.78,0,0,0,2.07-.49,4.94,4.94,0,0,0,2.46-6.49c-2.66-5.81-5.22-11.71-7.38-17.62a4.87,4.87,0,1,0-9.15,3.35c2.26,6.2,4.82,12.4,7.58,18.4A5.07,5.07,0,0,0,152.39,498.15Z"/><path d="M293.9,617.81c-5.9-2.17-11.81-4.63-17.61-7.28a4.89,4.89,0,1,0-4.13,8.86c6,2.85,12.2,5.41,18.4,7.68a4.6,4.6,0,0,0,1.67.29,5.08,5.08,0,0,0,4.62-3.25A5,5,0,0,0,293.9,617.81Z"/><path d="M480.94,610.23c-5.8,2.7-11.77,5.19-17.73,7.4a4.92,4.92,0,1,0,3.42,9.23c6.21-2.31,12.42-4.9,18.46-7.7a4.92,4.92,0,0,0-4.15-8.93Z"/><path d="M435.62,626c-2.42.58-4.89,1-7.34,1.46a51,51,0,0,0-100,.14c-2.26-.39-4.62-.89-6.89-1.48a4.82,4.82,0,0,0-5.9,3.64,4.91,4.91,0,0,0,3.64,5.9c2.66.59,5.41,1.18,8.17,1.77a51,51,0,0,0,102,0v-.1s0,0,0-.06c2.88-.59,5.78-1,8.62-1.72a4.92,4.92,0,0,0-2.31-9.57Zm-57.29,45.2a33.8,33.8,0,1,1,33.75-33.85A33.85,33.85,0,0,1,378.33,671.25Z"/><path d="M595,520.88a5,5,0,0,0-1.67-6.79,4.85,4.85,0,0,0-6.69,1.67c-3,4.72-6.1,9.45-9.35,14.07a41.61,41.61,0,0,0-57.42,57.57c-4.41,3.15-8.91,6.26-13.57,9.15a4.92,4.92,0,1,0,5.17,8.37c5.06-3.13,10-6.51,14.75-9.94a41.47,41.47,0,0,0,58.06-.69,41.53,41.53,0,0,0,.59-58.16C588.43,531.21,591.88,526,595,520.88Zm-57.37,61.31a24.41,24.41,0,0,1,0-34.54,24.47,24.47,0,0,1,34.44,0,24.41,24.41,0,0,1,0,34.54C562.95,591.34,546.81,591.34,537.65,582.19Z"/><path d="M613.53,470.1a5,5,0,0,0-6.3,3c-2.17,5.9-4.63,11.81-7.18,17.52a5,5,0,0,0,2.36,6.59,5.14,5.14,0,0,0,2.07.39,4.85,4.85,0,0,0,4.43-2.85c2.76-6,5.31-12.1,7.58-18.3A4.89,4.89,0,0,0,613.53,470.1Z"/><path d="M599.55,286.48q4,8.56,7.38,17.71a4.79,4.79,0,0,0,4.63,3.15,5,5,0,0,0,1.67-.3,4.93,4.93,0,0,0,3-6.3c-2.36-6.3-5-12.5-7.77-18.5a4.9,4.9,0,0,0-6.5-2.36A5,5,0,0,0,599.55,286.48Z"/><path d="M462.27,160.12c6,2.16,11.91,4.62,17.62,7.28a5.13,5.13,0,0,0,2.07.39,4.69,4.69,0,0,0,4.43-2.85,4.82,4.82,0,0,0-2.36-6.49c-6-2.76-12.1-5.31-18.3-7.58a4.93,4.93,0,0,0-6.3,3A4.8,4.8,0,0,0,462.27,160.12Z"/><path d="M505.08,180.79a123.59,123.59,0,0,1,10.63,7,45.26,45.26,0,0,0-7.18,24.7,46.36,46.36,0,0,0,46.35,46.35,45.35,45.35,0,0,0,24.8-7.18c2.16,3.05,4.23,6.3,6.2,9.45a5,5,0,0,0,6.69,1.57,5,5,0,0,0,1.67-6.79c-2.26-3.54-4.53-7-6.89-10.43.1,0,.2-.1.3-.2a46.34,46.34,0,1,0-65.54-65.54c-.1.1-.2.2-.2.3-3.84-2.66-7.77-5.22-11.71-7.68a4.94,4.94,0,0,0-5.12,8.46ZM575.44,233A29,29,0,1,1,584,212.47,28.94,28.94,0,0,1,575.44,233Z"/><path d="M319.49,152.05a60,60,0,0,0,117.69-.2,4.86,4.86,0,0,0,1.08-9.15,18.94,18.94,0,0,0,.1-2.36,60,60,0,0,0-120.06,0,18.94,18.94,0,0,0,.1,2.36,4.68,4.68,0,0,0-3.05,5.61A4.8,4.8,0,0,0,319.49,152.05Zm58.85-54.52A42.69,42.69,0,0,1,421,139.06a5.61,5.61,0,0,1,.1,1.28,40.75,40.75,0,0,1-.89,8.56,42.79,42.79,0,0,1-83.84.1,42.4,42.4,0,0,1-.89-8.66,5.61,5.61,0,0,1,.1-1.28A42.69,42.69,0,0,1,378.33,97.53Z"/><path d="M274.12,168.09a5.29,5.29,0,0,0,2.07-.49c5.81-2.66,11.71-5.12,17.71-7.28a4.94,4.94,0,0,0-3.44-9.25c-6.2,2.26-12.4,4.82-18.4,7.58a5,5,0,0,0-2.36,6.59A4.85,4.85,0,0,0,274.12,168.09Z"/><path d="M378.32,237.21c-83.72,0-151.84,68.12-151.84,151.84s68.12,151.84,151.84,151.84S530.17,472.77,530.17,389,462,237.21,378.32,237.21Zm0,286.46c-74.23,0-134.62-60.39-134.62-134.62s60.39-134.62,134.62-134.62S512.94,314.82,512.94,389,452.56,523.67,378.32,523.67Z"/><path d="M627,323.28A65.74,65.74,0,1,0,692.74,389,65.85,65.85,0,0,0,627,323.28Zm.29,114.25H627a43.68,43.68,0,0,1-9.55-1,48.47,48.47,0,0,1,0-95.06,43.64,43.64,0,0,1,9.55-1h.2a48.52,48.52,0,0,1,.1,97Z"/><path d="M240.86,526.49a54.2,54.2,0,0,0-68.29-6.79l-2.07-3.25a4.94,4.94,0,1,0-8.46,5.12c.89,1.48,1.77,3,2.76,4.33-.2.2-.49.39-.69.59a54.31,54.31,0,0,0,76.76,76.86,4.89,4.89,0,0,0,.69-.79c1.48,1,2.85,1.87,4.33,2.76a4.88,4.88,0,0,0,2.56.79,5,5,0,0,0,2.56-9.15l-3.25-2.07a53.35,53.35,0,0,0,9.05-30A54.06,54.06,0,0,0,240.86,526.49Zm-7.48,59a42,42,0,0,1-4.72,5.61,9.79,9.79,0,0,1-1.08,1,37,37,0,0,1-52.35-52.35,9.8,9.8,0,0,1,1-1.08,31.78,31.78,0,0,1,5.71-4.62,37,37,0,0,1,46.74,4.62,36.54,36.54,0,0,1,10.92,26.18A37.22,37.22,0,0,1,233.38,585.53Z"/></svg>