<svg xmlns="http://www.w3.org/2000/svg" viewBox="0 0 768 768"><title>chart-table</title><path d="M645.81,104.16H122.26a18.48,18.48,0,0,0-18.45,18.46V646.17a18.47,18.47,0,0,0,18.45,18.45H645.81a18.47,18.47,0,0,0,18.45-18.45V122.62A18.48,18.48,0,0,0,645.81,104.16Zm2,18.46V376.18H392.24V120.59H645.81A2,2,0,0,1,647.83,122.62Zm-525.57-2H375.82V376.18H120.24V122.62A2,2,0,0,1,122.26,120.59Zm-2,525.58V392.6H375.82V648.19H122.26A2,2,0,0,1,120.24,646.17Zm525.57,2H392.24V392.6H647.83V646.17A2,2,0,0,1,645.81,648.19Z"/></svg>