<svg xmlns="http://www.w3.org/2000/svg" viewBox="0 0 768 768"><title>done</title><path d="M380.6,478.35h0L264.92,362.67a26.67,26.67,0,0,0-3.1-2.66,26.66,26.66,0,0,1,3.1,2.66Z"/><path d="M380.6,543.35a26.74,26.74,0,0,0,6.42-.78,26.74,26.74,0,0,1-6.42.78Z"/><path d="M678.25,193.22q1.29.06,2.58.24Q679.55,193.29,678.25,193.22Z"/><path d="M256,356.8a26.58,26.58,0,0,1,5.78,3.21A26.58,26.58,0,0,0,256,356.8Z"/><path d="M230.42,359.7c.58-.41,1.17-.8,1.78-1.15C231.6,358.9,231,359.29,230.42,359.7Z"/><path d="M226.87,362.67h0c.37-.37.76-.73,1.15-1.08C227.63,361.94,227.24,362.3,226.87,362.67Z"/><path d="M671.81,193.68a27.31,27.31,0,0,1,3.86-.46A27.31,27.31,0,0,0,671.81,193.68Z"/><path d="M677,193.19q-.65,0-1.29,0,.65,0,1.29,0Z"/><path d="M646,383.81q0,49.44-19.58,98.4A258.81,258.81,0,0,1,482.7,625.88q-49,19.58-98.4,19.58t-98.4-19.58A258.81,258.81,0,0,1,142.23,482.21q-19.58-49-19.58-98.4t19.58-98.4A258.81,258.81,0,0,1,285.9,141.73q49-19.58,98.4-19.58t98.4,19.58a255.26,255.26,0,0,1,86.52,57.15q8.66,8.66,16.35,17.93l41.26-41.26q-7.86-9.13-16.51-17.77h0a312.61,312.61,0,0,0-105.79-70Q444.82,63.88,384.3,63.88T264.07,87.8A317.81,317.81,0,0,0,88.29,263.57Q64.37,323.29,64.37,383.81T88.29,504A317.81,317.81,0,0,0,264.07,679.82q59.72,23.92,120.23,23.92t120.23-23.92A317.81,317.81,0,0,0,680.31,504q23.92-59.72,23.92-120.23a312.32,312.32,0,0,0-11.81-84.59l-49,49A250.56,250.56,0,0,1,646,383.81Z"/><path d="M389.52,541.81q-1.23.44-2.5.75Q388.29,542.25,389.52,541.81Z"/><path d="M680.83,193.47a27.14,27.14,0,0,1,3.81.83A27.16,27.16,0,0,0,680.83,193.47Z"/><path d="M380.6,543.35h0a26.74,26.74,0,0,1-6.42-.78A26.74,26.74,0,0,0,380.6,543.35Z"/><path d="M374.18,542.56q-1.26-.31-2.5-.75Q372.92,542.25,374.18,542.56Z"/><rect x="333.31" y="364.17" width="322.96" transform="translate(-112.58 456.53) rotate(-45)"/><path d="M249.77,355.12a27.14,27.14,0,0,1,3.81.83A27.14,27.14,0,0,0,249.77,355.12Z"/><path d="M238.22,355.94a27.14,27.14,0,0,1,3.81-.83A27.14,27.14,0,0,0,238.22,355.94Z"/><path d="M247.19,354.87q-1.29-.06-2.59,0,.65,0,1.29,0T247.19,354.87Z"/><path d="M226.87,400.73a27,27,0,0,1,0-38.05h0a27,27,0,0,0,0,38.05L361.58,535.43a27,27,0,0,0,8.88,5.91,27,27,0,0,1-8.88-5.91Z"/><path d="M234.55,357.32a26.83,26.83,0,0,1,3.67-1.38A26.83,26.83,0,0,0,234.55,357.32Z"/><path d="M228,361.6a26.56,26.56,0,0,1,2.41-1.9A26.54,26.54,0,0,0,228,361.6Z"/><path d="M399.63,535.43a27,27,0,0,1-8.88,5.91,27,27,0,0,0,8.88-5.91l233-233h0Z"/><path d="M696,201a26.57,26.57,0,0,0-6.49-4.77q-1.17-.61-2.39-1.1t-2.47-.86a27.14,27.14,0,0,0-3.81-.83q-1.28-.18-2.58-.24-.65,0-1.29,0t-1.29,0a27.31,27.31,0,0,0-3.86.46,26.89,26.89,0,0,0-7.38,2.57,26.55,26.55,0,0,0-2.29,1.35q-.56.37-1.1.76-.81.6-1.59,1.26t-1.51,1.4l-6.75,6.75L609,250h0L380.6,478.35h0L264.92,362.67A26.57,26.57,0,0,0,256,356.8q-1.22-.49-2.47-.86a27.14,27.14,0,0,0-3.81-.83q-1.28-.18-2.58-.24-.65,0-1.29,0t-1.29,0q-1.29.06-2.58.24a27.14,27.14,0,0,0-3.81.83,26.83,26.83,0,0,0-3.67,1.38q-1.19.55-2.34,1.22c-.61.36-1.2.75-1.78,1.15a26.56,26.56,0,0,0-2.41,1.9c-.39.35-.77.7-1.15,1.08a27,27,0,0,0,0,38.05L361.58,535.43a27,27,0,0,0,8.88,5.91q.61.25,1.22.47,1.23.44,2.5.75a26.68,26.68,0,0,0,12.84,0q1.26-.31,2.5-.75.62-.22,1.22-.47a27,27,0,0,0,8.88-5.91l233-233h0l45.13-45.13L696,239.08A26.73,26.73,0,0,0,696,201Z"/></svg>