<?xml version="1.0" encoding="utf-8"?>
<!-- Generated by IcoMoon.io -->
<!DOCTYPE svg PUBLIC "-//W3C//DTD SVG 1.1//EN" "http://www.w3.org/Graphics/SVG/1.1/DTD/svg11.dtd">
<svg version="1.1" xmlns="http://www.w3.org/2000/svg" xmlns:xlink="http://www.w3.org/1999/xlink" width="768" height="768" viewBox="0 0 768 768">
<g id="icomoon-ignore">
</g>
<path d="M160 0h320l224 224v448q0 39.75-28.125 67.875t-67.875 28.125h-448q-39.75 0-67.875-28.125t-28.125-67.875v-576q0-39.75 28.125-67.875t67.875-28.125zM416 288v-224h-256q-13.5 0-22.75 9.25t-9.25 22.75v576q0 13.5 9.25 22.75t22.75 9.25h448q13.5 0 22.75-9.25t9.25-22.75v-384h-224zM613.5 224l-133.5-133.5v133.5h133.5z"></path>
</svg>
