<?xml version="1.0" encoding="utf-8"?>
<!-- Generated by IcoMoon.io -->
<!DOCTYPE svg PUBLIC "-//W3C//DTD SVG 1.1//EN" "http://www.w3.org/Graphics/SVG/1.1/DTD/svg11.dtd">
<svg version="1.1" xmlns="http://www.w3.org/2000/svg" xmlns:xlink="http://www.w3.org/1999/xlink" width="768" height="768" viewBox="0 0 768 768">
<g id="icomoon-ignore">
</g>
<path d="M576 514.5q39 0 66 27.75t27 65.25q0 39-27.75 66.75t-65.25 27.75-65.25-27.75-27.75-66.75q0-15 1.5-21l-226.5-132q-28.5 25.5-66 25.5-39 0-67.5-28.5t-28.5-67.5 28.5-67.5 67.5-28.5q37.5 0 66 25.5l225-130.5q-3-15-3-22.5 0-39 28.5-67.5t67.5-28.5 67.5 28.5 28.5 67.5-28.5 67.5-67.5 28.5q-36 0-66-27l-225 132q3 15 3 22.5t-3 22.5l228 132q27-24 63-24z"></path>
</svg>
