<svg xmlns="http://www.w3.org/2000/svg" viewBox="0 0 99.18 29"><defs><style>.a{fill:#fff;}</style></defs><title>Admin</title><path class="a" d="M7,19.68L5.49,23.55H0l9.06-21h5.49l8.85,21H17.7l-1.5-3.87H7ZM11.64,7.86L8.58,15.63h6.06Z"/><path class="a" d="M40.2,23.55H35V21.42a5.85,5.85,0,0,1-4.86,2.34c-4.56,0-7.56-3.36-7.56-8.37s3-8.22,7.44-8.22a6,6,0,0,1,5,2.34V1.29H40.2V23.55Zm-5.19-8c0-2.49-1.44-4.2-3.6-4.2s-3.6,1.71-3.63,4.2,1.47,4.23,3.63,4.23S35,18,35,15.51Z"/><path class="a" d="M71.16,13.35v10.2H66V14.79c0-1.92-1.08-3.09-2.79-3.09-1.95.06-3.15,1.65-3.15,3.84v8H54.87V14.79c0-1.92-1-3.09-2.76-3.09-2,.06-3.21,1.65-3.21,3.84v8H43.74V7.38H48.9V10a5.87,5.87,0,0,1,5.34-2.91,5.41,5.41,0,0,1,5.4,3.66,5.87,5.87,0,0,1,5.7-3.66C68.88,7.14,71.16,9.57,71.16,13.35Z"/><path class="a" d="M79.44,2.73a2.73,2.73,0,1,1-5.46,0A2.73,2.73,0,0,1,79.44,2.73ZM74.1,23.55V7.38h5.16V23.55H74.1Z"/><path class="a" d="M99.18,13.35v10.2H94V14.79a2.75,2.75,0,0,0-2.85-3.06A3.3,3.3,0,0,0,87.87,15v8.55H82.68V7.38h5.19V10a6,6,0,0,1,5.4-2.88C96.84,7.14,99.18,9.57,99.18,13.35Z"/></svg>
