<svg xmlns="http://www.w3.org/2000/svg" viewBox="0 0 109.85 24.93"><defs><style>.a{fill:#fff;}</style></defs><title>Explorer</title><path class="a" d="M4.74,4.85v3.7h8.9v3.73H4.74V16H14.89v3.73H0V1.12H14.6V4.85H4.74Z"/><path class="a" d="M26.08,5.41h5l-4.55,7,4.87,7.38h-5.3l-2.61-4.5-2.93,4.5H15.53l4.9-7.35-4.58-7h5.27l2.4,4.13Z"/><path class="a" d="M48.5,12.65c0,4.37-2.61,7.27-6.63,7.27a5.31,5.31,0,0,1-4.39-2.08v7.09H32.87V5.41h4.61V7.3a5.23,5.23,0,0,1,4.29-2.05C45.81,5.25,48.5,8.2,48.5,12.65Zm-4.63-.13c0-2.18-1.3-3.73-3.22-3.73s-3.17,1.55-3.17,3.73,1.3,3.76,3.17,3.76S43.87,14.73,43.87,12.52Z"/><path class="a" d="M50.45,19.76V0h4.61V19.76H50.45Z"/><path class="a" d="M72.69,12.57c0,4.42-3.14,7.35-7.83,7.35S57,17,57,12.57s3.14-7.33,7.86-7.33S72.69,8.15,72.69,12.57Zm-11.05.05c0,2.24,1.3,3.73,3.22,3.73s3.2-1.49,3.2-3.73-1.3-3.73-3.2-3.73S61.64,10.42,61.64,12.63Z"/><path class="a" d="M79.11,7.83a5.24,5.24,0,0,1,4.66-2.64V9.35c-2.66-.24-4.42,1-4.66,3v7.38H74.5V5.41h4.61V7.83Z"/><path class="a" d="M98.74,13.82H88.65A3.32,3.32,0,0,0,92,16.49,4.85,4.85,0,0,0,95.46,15l2.42,2.37a8.25,8.25,0,0,1-6.26,2.53C86.94,19.92,84,17,84,12.63s3-7.38,7.48-7.38C96.56,5.25,99.06,8.58,98.74,13.82Zm-4.42-2.48a2.68,2.68,0,0,0-2.77-2.9,3.08,3.08,0,0,0-3,2.9h5.75Z"/><path class="a" d="M105.19,7.83a5.24,5.24,0,0,1,4.66-2.64V9.35c-2.66-.24-4.42,1-4.66,3v7.38h-4.61V5.41h4.61V7.83Z"/></svg>
