<svg xmlns="http://www.w3.org/2000/svg" viewBox="0 0 118.7 25.59"><defs><style>.a{fill:#fff;}</style></defs><title>Packager</title><path class="a" d="M12.91,2.83a6.39,6.39,0,0,1,2,5.15q0,3.47-2,5.08T6.68,14.67H4.18V19.9H0V1.15H6.62Q10.94,1.15,12.91,2.83ZM9.84,10.2a3.6,3.6,0,0,0,.75-2.47,2.61,2.61,0,0,0-1-2.31,5.38,5.38,0,0,0-3-.68H4.18V11H7A3.73,3.73,0,0,0,9.84,10.2Z"/><path class="a" d="M29.1,19.9H25.32V18.16a4.74,4.74,0,0,1-3.85,2,5.72,5.72,0,0,1-3.85-1.33,4.42,4.42,0,0,1-1.56-3.54,3.74,3.74,0,0,1,1.61-3.31,7.7,7.7,0,0,1,4.4-1.1h3V10.75q0-2.31-2.44-2.31a6.61,6.61,0,0,0-2.21.42,7.19,7.19,0,0,0-2,1l-1.8-2.6a10.76,10.76,0,0,1,6.49-2.07,6.71,6.71,0,0,1,4.29,1.31A5,5,0,0,1,29.1,10.7v9.2Zm-4-5.5V13.7H22.53q-2.41,0-2.41,1.5a1.38,1.38,0,0,0,.58,1.19,2.79,2.79,0,0,0,1.65.42,2.93,2.93,0,0,0,1.89-.66A2.14,2.14,0,0,0,25,14.4Z"/><path class="a" d="M39,16.55a4.61,4.61,0,0,0,3.62-2L45,17.22a8.3,8.3,0,0,1-6,2.9,7.82,7.82,0,0,1-5.48-2.05,6.93,6.93,0,0,1-2.24-5.36,7,7,0,0,1,2.27-5.39,7.69,7.69,0,0,1,5.38-2.08,8.37,8.37,0,0,1,3.15.64,8,8,0,0,1,2.8,1.9l-2.09,2.74a4.75,4.75,0,0,0-1.7-1.29,4.81,4.81,0,0,0-2-.46,3.92,3.92,0,0,0-2.72,1,3.68,3.68,0,0,0-1.14,2.87,3.63,3.63,0,0,0,1.14,2.86A3.88,3.88,0,0,0,39,16.55Z"/><path class="a" d="M51.06,19.9H47V0h4V10.22l4.48-4.77h5.07l-5.5,5.85,5.71,8.61H56.05l-3.67-5.52-1.31,1.37V19.9Z"/><path class="a" d="M74.21,19.9H70.43V18.16a4.74,4.74,0,0,1-3.85,2,5.72,5.72,0,0,1-3.85-1.33,4.42,4.42,0,0,1-1.56-3.54,3.74,3.74,0,0,1,1.61-3.31,7.7,7.7,0,0,1,4.4-1.1h3V10.75q0-2.31-2.44-2.31a6.61,6.61,0,0,0-2.21.42,7.19,7.19,0,0,0-2,1l-1.8-2.6a10.76,10.76,0,0,1,6.49-2.07,6.71,6.71,0,0,1,4.29,1.31,5,5,0,0,1,1.66,4.16v9.2Zm-4-5.5V13.7H67.64q-2.41,0-2.41,1.5a1.38,1.38,0,0,0,.58,1.19,2.79,2.79,0,0,0,1.65.42,2.93,2.93,0,0,0,1.89-.66A2.14,2.14,0,0,0,70.16,14.4Z"/><path class="a" d="M87.89,17.46a6.11,6.11,0,0,1-4.73,2.12,6.53,6.53,0,0,1-4.77-1.92,6.87,6.87,0,0,1-1.94-5.12,7.22,7.22,0,0,1,2-5.26A6.22,6.22,0,0,1,83,5.23a5.24,5.24,0,0,1,4.26,2.12V5.44h4V18a8.34,8.34,0,0,1-.67,3.43,5.93,5.93,0,0,1-1.8,2.36,8.19,8.19,0,0,1-5.26,1.77,11,11,0,0,1-3.29-.52,9.39,9.39,0,0,1-2.94-1.49l1.56-3A6.85,6.85,0,0,0,83.1,22a5.21,5.21,0,0,0,3.5-1.1A4.34,4.34,0,0,0,87.89,17.46Zm-0.56-5.08a3.73,3.73,0,0,0-1-2.72,3.2,3.2,0,0,0-2.39-1,3.42,3.42,0,0,0-2.45,1,3.58,3.58,0,0,0-1,2.71,3.86,3.86,0,0,0,1,2.78,3.25,3.25,0,0,0,2.45,1.06,3.15,3.15,0,0,0,2.41-1A3.93,3.93,0,0,0,87.32,12.38Z"/><path class="a" d="M106.93,17.81a8.07,8.07,0,0,1-5.73,2.31,7.6,7.6,0,0,1-5.43-2,7.11,7.11,0,0,1-2.15-5.43,7,7,0,0,1,2.19-5.42,7.37,7.37,0,0,1,5.16-2A7.47,7.47,0,0,1,106,7,6.18,6.18,0,0,1,108.11,12v2.15H97.59A2.87,2.87,0,0,0,98.83,16a4,4,0,0,0,2.36.75,4.63,4.63,0,0,0,3.49-1.42Zm-3.86-8.56a3,3,0,0,0-2-.7,3.62,3.62,0,0,0-2.19.72,2.77,2.77,0,0,0-1.15,2H104A2.86,2.86,0,0,0,103.07,9.25Z"/><path class="a" d="M117.92,9a3,3,0,0,0-2.68,1.27,5.79,5.79,0,0,0-.89,3.37V19.9h-4V5.47h4v1.9a6.75,6.75,0,0,1,1.94-1.5,5.29,5.29,0,0,1,2.37-.64l0,3.78h-0.78Z"/></svg>