<svg xmlns="http://www.w3.org/2000/svg" viewBox="0 0 90.49 25"><defs><style>.a{fill:#fff;}</style></defs><title>Viewer</title><path class="a" d="M9.31,13.49L14.08,1.55h4.53L11.08,20.3H7.54L0,1.55H4.53Z"/><path class="a" d="M20.1,4a2.28,2.28,0,0,1-.68-1.68A2.28,2.28,0,0,1,20.1.68a2.4,2.4,0,0,1,3.35,0,2.28,2.28,0,0,1,.68,1.68A2.28,2.28,0,0,1,23.45,4,2.4,2.4,0,0,1,20.1,4ZM23.79,20.3h-4V5.87h4V20.3Z"/><path class="a" d="M39.42,18.21a8.07,8.07,0,0,1-5.73,2.31,7.6,7.6,0,0,1-5.43-2,7.11,7.11,0,0,1-2.15-5.43,7,7,0,0,1,2.19-5.42,7.37,7.37,0,0,1,5.16-2,7.47,7.47,0,0,1,5.06,1.8,6.18,6.18,0,0,1,2.08,4.94v2.15H30.09a2.87,2.87,0,0,0,1.23,1.93,4,4,0,0,0,2.36.75,4.63,4.63,0,0,0,3.49-1.42ZM35.56,9.65a3,3,0,0,0-2-.7,3.63,3.63,0,0,0-2.19.72,2.77,2.77,0,0,0-1.15,2h6.33A2.86,2.86,0,0,0,35.56,9.65Z"/><path class="a" d="M50.21,20.3H46L41.14,5.87H45.3l2.82,8.72,2.82-8.72h3.89l2.82,8.72,2.82-8.72h4.18L59.73,20.3H55.54l-2.66-7.86Z"/><path class="a" d="M78.71,18.21A8.07,8.07,0,0,1,73,20.52a7.6,7.6,0,0,1-5.43-2,7.11,7.11,0,0,1-2.15-5.43A7,7,0,0,1,67.6,7.64a7.37,7.37,0,0,1,5.16-2,7.47,7.47,0,0,1,5.06,1.8,6.18,6.18,0,0,1,2.08,4.94v2.15H69.38a2.87,2.87,0,0,0,1.23,1.93,4,4,0,0,0,2.36.75,4.63,4.63,0,0,0,3.49-1.42ZM74.85,9.65a3,3,0,0,0-2-.7,3.63,3.63,0,0,0-2.19.72,2.77,2.77,0,0,0-1.15,2h6.33A2.86,2.86,0,0,0,74.85,9.65Z"/><path class="a" d="M89.71,9.41A3,3,0,0,0,87,10.69a5.79,5.79,0,0,0-.89,3.37V20.3h-4V5.87h4v1.9a6.77,6.77,0,0,1,1.94-1.5,5.29,5.29,0,0,1,2.37-.64l0,3.78H89.71Z"/></svg>
